<?xml version="1.0" encoding="UTF-8" standalone="no"?>
<!-- Created with Inkscape (http://www.inkscape.org/) -->
<svg width="104.771mm" height="31.75mm" viewBox="0 0 104.771 31.75" version="1.1" id="svg1" sodipodi:docname="earthkit-data-light.svg" inkscape:version="1.3 (0e150ed, 2023-07-21)" xmlns:inkscape="http://www.inkscape.org/namespaces/inkscape" xmlns:sodipodi="http://sodipodi.sourceforge.net/DTD/sodipodi-0.dtd" xmlns="http://www.w3.org/2000/svg" xmlns:svg="http://www.w3.org/2000/svg">
  <sodipodi:namedview id="namedview1" pagecolor="#ffffff" bordercolor="#000000" borderopacity="0.25" inkscape:showpageshadow="2" inkscape:pageopacity="0.0" inkscape:pagecheckerboard="0" inkscape:deskcolor="#d1d1d1" inkscape:document-units="mm" inkscape:zoom="2.0429983" inkscape:cx="158.59044" inkscape:cy="59.471415" inkscape:window-width="1936" inkscape:window-height="1086" inkscape:window-x="320" inkscape:window-y="205" inkscape:window-maximized="0" inkscape:current-layer="layer1" showguides="false">
    <sodipodi:guide position="12.702752,3180.6689" orientation="1,0" id="guide23" inkscape:locked="false"/>
    <sodipodi:guide position="-13.005395,3158.6652" orientation="0,-1" id="guide24" inkscape:locked="false"/>
    <sodipodi:guide position="-3.4643869,3156.8382" orientation="0,-1" id="guide25" inkscape:locked="false"/>
    <sodipodi:guide position="0.68237925,3150.4343" orientation="0,-1" id="guide35" inkscape:locked="false"/>
    <sodipodi:guide position="14.487436,3178.5693" orientation="1,0" id="guide37" inkscape:locked="false"/>
    <sodipodi:guide position="20.68134,3140.5136" orientation="1,0" id="guide38" inkscape:locked="false"/>
    <sodipodi:guide position="6.8148268,3163.7633" orientation="0,-1" id="guide49" inkscape:locked="false"/>
    <sodipodi:guide position="6.91887,3165.0898" orientation="0,-1" id="guide50" inkscape:locked="false"/>
    <sodipodi:guide position="23.148404,3148.9121" orientation="0,-1" id="guide164" inkscape:locked="false"/>
    <sodipodi:guide position="22.203571,3156.8907" orientation="1,0" id="guide165" inkscape:locked="false"/>
  </sodipodi:namedview>
  <defs id="defs1">
    <inkscape:path-effect effect="lattice2" gridpoint0="8.1004509,5.8903307" gridpoint1="29.147469,5.8903307" gridpoint2="8.1004509,26.937348" gridpoint3="29.017962,27.066855" gridpoint4="12.002378,3.0411686" gridpoint5="25.245542,3.0411686" gridpoint6="12.002378,29.527495" gridpoint7="25.245542,29.527495" gridpoint8x9="18.364945,-0.32602297" gridpoint10x11="18.62396,32.24715" gridpoint12="5.3807961,9.6627503" gridpoint13="31.867124,9.6627503" gridpoint14="5.3807961,22.905914" gridpoint15="31.867124,22.905914" gridpoint16="8.3761717,5.9070366" gridpoint17="29.389778,6.1660513" gridpoint18="8.5056791,26.791135" gridpoint19="28.871748,26.661627" gridpoint20x21="18.62396,9.2742282" gridpoint22x23="18.62396,22.905914" gridpoint24x26="2.2726193,16.543347" gridpoint25x27="34.975301,16.284332" gridpoint28x30="12.002378,16.284332" gridpoint29x31="25.245542,16.284332" gridpoint32x33x34x35="18.62396,16.284332" id="path-effect6" is_visible="true" lpeversion="1" horizontal_mirror="false" vertical_mirror="false" perimetral="false" live_update="true"/>
    <inkscape:path-effect effect="envelope" id="path-effect5" is_visible="true" lpeversion="1" yy="true" xx="true" bendpath1="M 5.3861823,3.0442128 H 31.87251" bendpath2="M 31.87251,3.0442128 V 29.53054" bendpath3="M 5.3861823,29.53054 H 31.87251" bendpath4="M 5.3861823,3.0442128 V 29.53054"/>
    <inkscape:path-effect effect="lattice2" gridpoint0="5.1232276,4.2798048" gridpoint1="29.183894,3.7617753" gridpoint2="5.5117498,31.366657" gridpoint3="28.795372,30.848628" gridpoint4="9.8109436,2.596209" gridpoint5="23.589626,2.596209" gridpoint6="9.8109436,33.438775" gridpoint7="23.589626,33.438775" gridpoint8x9="16.700285,2.596209" gridpoint10x11="16.700285,33.438775" gridpoint12="2.9216024,10.306851" gridpoint13="30.478967,10.306851" gridpoint14="2.9216024,25.728134" gridpoint15="30.478967,25.728134" gridpoint16="8.9043921,9.2707916" gridpoint17="24.496178,9.0117769" gridpoint18="9.8109436,25.728134" gridpoint19="24.237163,26.246163" gridpoint20x21="16.570778,7.0691663" gridpoint22x23="16.311763,27.800252" gridpoint24x26="2.1445582,17.887985" gridpoint25x27="32.8101,18.146999" gridpoint28x30="6.05523,18.665029" gridpoint29x31="25.920759,17.499463" gridpoint32x33x34x35="16.700285,18.017492" id="path-effect4" is_visible="true" lpeversion="1" horizontal_mirror="false" vertical_mirror="false" perimetral="false" live_update="true"/>
    <inkscape:path-effect effect="envelope" id="path-effect3" is_visible="true" lpeversion="1" yy="true" xx="true" bendpath1="M 2.9245269,2.5988078 H 30.481892" bendpath2="M 30.481892,2.5988078 V 33.441374" bendpath3="M 2.9245269,33.441374 H 30.481892" bendpath4="M 2.9245269,2.5988078 V 33.441374"/>
    <rect x="297.27747" y="98.696114" width="252.09129" height="79.670357" id="rect12"/>
    <rect x="297.27747" y="98.696114" width="252.09129" height="79.670357" id="rect22"/>
    <rect x="297.27747" y="98.696114" width="252.09129" height="79.670357" id="rect12-4"/>
    <rect x="297.27747" y="98.696114" width="252.09129" height="79.670357" id="rect22-8"/>
  </defs>
  <g inkscape:label="text" inkscape:groupmode="layer" id="layer1" transform="translate(-30.975453,-17.719192)" style="display:inline">
    <path style="fill:#f9f9f9;stroke:none;stroke-width:0;stroke-linecap:square;stroke-dasharray:none" d="M 42.260316,67.25665 V 77.452879" id="path59"/>
    <path style="font-size:50.9924px;font-family:'Varela Round';-inkscape-font-specification:'Varela Round';white-space:pre;shape-padding:4.75644;fill:#2a2a2a;stroke:#2a2a2a;stroke-width:2.06493;stroke-linecap:round;stroke-linejoin:round" d="m 317.68787,149.91332 q -6.22107,0 -9.73955,-3.51848 -3.46748,-3.56946 -3.46748,-9.99451 0,-3.46748 1.27481,-6.52702 1.27481,-3.11054 3.97741,-5.04825 2.70259,-1.93771 6.93496,-1.93771 3.92642,0 6.62901,1.83572 2.7026,1.78474 4.0794,4.6913 1.42778,2.90657 1.42778,6.32306 0,0.96886 -0.6629,1.63176 -0.61191,0.6629 -1.68275,0.6629 h -17.28642 q 0.40794,3.41649 2.60061,5.50718 2.19267,2.03969 6.32306,2.03969 2.29466,0 3.87542,-0.40793 1.58077,-0.45894 3.00855,-1.17283 0.40794,-0.20397 0.91787,-0.20397 0.81588,0 1.42778,0.56092 0.61191,0.56091 0.61191,1.42778 0,0.61191 -0.40794,1.12184 -0.35694,0.45893 -0.91786,0.76488 -1.68275,0.96886 -3.67145,1.63176 -1.93771,0.61191 -5.25222,0.61191 z m -8.51573,-15.65467 h 15.04276 q -0.15298,-2.6516 -1.3768,-4.28336 -1.17282,-1.63176 -2.85557,-2.39664 -1.68275,-0.76489 -3.31451,-0.76489 -1.63175,0 -3.3145,0.76489 -1.68275,0.76488 -2.85558,2.39664 -1.17282,1.63176 -1.3258,4.28336 z m 32.38017,15.65467 q -2.19267,0 -4.13038,-0.91786 -1.88672,-0.91787 -3.05955,-2.60062 -1.12183,-1.73374 -1.12183,-4.13038 0,-3.62046 2.85558,-5.91512 2.90656,-2.34565 8.87267,-2.34565 h 6.17008 v -0.40794 q 0,-3.41649 -1.68274,-4.84428 -1.68275,-1.47878 -5.15024,-1.47878 -2.14168,0 -3.77343,0.40794 -1.58077,0.35695 -3.00856,0.81588 -0.40794,0.10199 -0.6629,0.10199 -0.76488,0 -1.3258,-0.56092 -0.56092,-0.56092 -0.56092,-1.3768 0,-1.37679 1.32581,-1.93771 1.78473,-0.76488 3.92641,-1.27481 2.19267,-0.56091 4.89527,-0.56091 3.72245,0 6.0681,1.47878 2.34565,1.47878 3.46748,3.77343 1.12183,2.29466 1.12183,4.79329 v 14.43085 q 0,0.96885 -0.71389,1.63176 -0.6629,0.6629 -1.63176,0.6629 -0.96885,0 -1.63175,-0.6629 -0.66291,-0.66291 -0.66291,-1.63176 v -1.3258 q -1.37679,1.42778 -3.67145,2.6516 -2.29466,1.22382 -5.91512,1.22382 z m 1.73374,-4.07939 q 2.39665,0 4.48734,-1.17283 2.09068,-1.17282 3.36549,-2.6516 v -4.28336 h -5.55817 q -3.56947,0 -5.66015,0.91786 -2.0397,0.91786 -2.0397,3.11053 0,1.63176 1.12183,2.85558 1.17283,1.22382 4.28336,1.22382 z m 22.58956,3.82443 q -0.96886,0 -1.63176,-0.6629 -0.6629,-0.66291 -0.6629,-1.63176 v -21.87574 q 0,-0.96886 0.6629,-1.63176 0.6629,-0.71389 1.63176,-0.71389 0.96885,0 1.63175,0.71389 0.7139,0.6629 0.7139,1.63176 v 2.19267 q 1.37679,-1.83572 3.36549,-3.3145 1.98871,-1.47878 4.64031,-1.47878 h 0.25496 q 0.96886,0 1.58077,0.6629 0.6629,0.6629 0.6629,1.63175 0,0.96886 -0.6629,1.58077 -0.6629,0.61191 -1.68275,0.61191 h -0.25496 q -2.49863,0 -4.53833,1.27481 -2.03969,1.22382 -3.36549,3.21252 v 15.50169 q 0,0.96885 -0.7139,1.63176 -0.6629,0.6629 -1.63175,0.6629 z m 26.21006,0.25496 q -0.91786,0 -2.19267,-0.20397 -1.22382,-0.15298 -2.44764,-0.76489 -1.17282,-0.6629 -1.9887,-2.03969 -0.81588,-1.3768 -0.81588,-3.72245 v -15.80764 h -3.62046 q -0.96885,0 -0.96885,-0.96886 0,-0.50992 0.45893,-0.86687 l 6.93496,-6.78199 q 0.10199,-0.10198 0.30596,-0.25496 0.25496,-0.20397 0.56092,-0.20397 0.40793,0 0.6629,0.30595 0.30595,0.30596 0.30595,0.7139 v 4.07939 h 5.76214 q 0.86687,0 1.42779,0.56092 0.56092,0.56091 0.56092,1.42778 0,0.81588 -0.56092,1.42779 -0.56092,0.56092 -1.42779,0.56092 h -5.76214 v 15.3997 q 0,1.47878 0.56092,2.14168 0.56091,0.6629 1.3258,0.81588 0.81588,0.10199 1.42779,0.10199 1.22382,0 1.78473,-0.20397 0.61191,-0.25496 1.27481,-0.25496 0.7139,0 1.27481,0.50992 0.56092,0.50992 0.56092,1.3258 0,1.17283 -1.17283,1.78474 -0.91786,0.40793 -1.9887,0.6629 -1.01985,0.25496 -2.24367,0.25496 z m 12.79909,-0.25496 q -0.96885,0 -1.63175,-0.6629 -0.6629,-0.66291 -0.6629,-1.63176 v -33.09407 q 0,-1.01985 0.6629,-1.68275 0.6629,-0.6629 1.63175,-0.6629 0.96886,0 1.63176,0.6629 0.71389,0.6629 0.71389,1.68275 v 13.30902 q 1.63176,-1.78474 3.82443,-3.21252 2.24367,-1.47878 5.66016,-1.47878 2.90657,0 4.94626,1.37679 2.0397,1.3258 3.11054,3.62046 1.07084,2.24367 1.07084,4.99726 v 14.48184 q 0,0.96885 -0.71389,1.63176 -0.6629,0.6629 -1.63176,0.6629 -0.96885,0 -1.63176,-0.6629 -0.6629,-0.66291 -0.6629,-1.63176 v -13.97192 q 0,-2.90657 -1.3258,-4.53832 -1.27481,-1.68275 -4.28336,-1.68275 -2.75359,0 -4.79329,1.47878 -2.03969,1.47878 -3.56947,3.41649 v 15.29772 q 0,0.96885 -0.71389,1.63176 -0.6629,0.6629 -1.63176,0.6629 z m 31.05433,0 q -0.96885,0 -1.63175,-0.6629 -0.6629,-0.66291 -0.6629,-1.63176 v -33.09407 q 0,-0.96886 0.6629,-1.63176 0.6629,-0.71389 1.63175,-0.71389 0.96886,0 1.63176,0.71389 0.71389,0.6629 0.71389,1.63176 v 20.85589 l 12.1362,-11.21833 q 0.30595,-0.25496 0.6629,-0.45893 0.40794,-0.20397 0.86687,-0.20397 1.3258,0 1.78473,0.76489 0.45893,0.71389 0.45893,1.47878 0,0.30595 -0.15297,0.76488 -0.15298,0.40794 -0.7139,0.96886 l -7.3429,6.57802 9.22962,12.23818 q 0.50992,0.6629 0.50992,1.37679 0,1.01985 -0.6629,1.63176 -0.6629,0.61191 -1.68275,0.61191 -1.07084,0 -1.88671,-0.96886 l -8.7707,-11.93222 -4.43634,4.0284 v 6.57802 q 0,0.96885 -0.71389,1.63176 -0.6629,0.6629 -1.63176,0.6629 z m 27.68878,-31.5643 q -1.07084,0 -1.83572,-0.76489 -0.76489,-0.76488 -0.76489,-1.83572 v -0.20397 q 0,-1.07084 0.76489,-1.83573 0.76488,-0.76488 1.83572,-0.76488 h 0.30596 q 1.07084,0 1.83572,0.76488 0.76489,0.76489 0.76489,1.83573 v 0.20397 q 0,1.07084 -0.76489,1.83572 -0.76488,0.76489 -1.83572,0.76489 z m 0.10199,31.5643 q -0.96886,0 -1.63176,-0.6629 -0.6629,-0.66291 -0.6629,-1.63176 v -21.87574 q 0,-1.01985 0.6629,-1.68275 0.6629,-0.6629 1.63176,-0.6629 1.01985,0 1.68275,0.6629 0.6629,0.6629 0.6629,1.68275 v 21.87574 q 0,0.96885 -0.6629,1.63176 -0.6629,0.6629 -1.68275,0.6629 z m 19.37704,0.25496 q -0.91786,0 -2.19267,-0.20397 -1.22382,-0.15298 -2.44764,-0.76489 -1.17283,-0.6629 -1.9887,-2.03969 -0.81588,-1.3768 -0.81588,-3.72245 v -15.80764 h -3.62046 q -0.96886,0 -0.96886,-0.96886 0,-0.50992 0.45893,-0.86687 l 6.93497,-6.78199 q 0.10198,-0.10198 0.30595,-0.25496 0.25497,-0.20397 0.56092,-0.20397 0.40794,0 0.6629,0.30595 0.30596,0.30596 0.30596,0.7139 v 4.07939 h 5.76214 q 0.86687,0 1.42778,0.56092 0.56092,0.56091 0.56092,1.42778 0,0.81588 -0.56092,1.42779 -0.56091,0.56092 -1.42778,0.56092 h -5.76214 v 15.3997 q 0,1.47878 0.56091,2.14168 0.56092,0.6629 1.32581,0.81588 0.81587,0.10199 1.42778,0.10199 1.22382,0 1.78474,-0.20397 0.61191,-0.25496 1.27481,-0.25496 0.71389,0 1.27481,0.50992 0.56091,0.50992 0.56091,1.3258 0,1.17283 -1.17282,1.78474 -0.91787,0.40793 -1.98871,0.6629 -1.01984,0.25496 -2.24366,0.25496 z" id="text12" transform="matrix(0.29056645,0,0,0.29056645,-11.196464,-11.002162)" aria-label="earthkit"/>
    <path style="font-size:38.8513px;font-family:'Varela Round';-inkscape-font-specification:'Varela Round';white-space:pre;shape-padding:4.75644;fill:#f3722c;stroke:#f3722c;stroke-width:2.06493;stroke-linecap:round;stroke-linejoin:round" d="m 313.30008,138.85085 q -2.33108,0 -4.50675,-1.20439 -2.13682,-1.20439 -3.53547,-3.49661 -1.35979,-2.29223 -1.35979,-5.59459 0,-3.30236 1.35979,-5.59459 1.39865,-2.29222 3.53547,-3.49661 2.17567,-1.20439 4.50675,-1.20439 2.05912,0 3.69087,0.77702 1.63176,0.77703 2.9527,2.17567 v -9.51856 q 0,-0.77703 0.50507,-1.2821 0.54392,-0.50506 1.28209,-0.50506 0.73818,0 1.24324,0.50506 0.50507,0.50507 0.50507,1.2821 v 25.21449 q 0,0.73817 -0.50507,1.24324 -0.50506,0.50507 -1.24324,0.50507 -0.73817,0 -1.28209,-0.50507 -0.50507,-0.50507 -0.50507,-1.24324 v -1.01013 q -1.32094,1.39864 -2.9527,2.17567 -1.63175,0.77702 -3.69087,0.77702 z m 0.50507,-3.30236 q 1.90371,0 3.45776,-0.81587 1.55405,-0.85473 2.68074,-2.09797 v -8.15878 q -1.12669,-1.24324 -2.68074,-2.05912 -1.55405,-0.85472 -3.45776,-0.85472 -2.75845,0 -4.58446,1.78716 -1.78716,1.7483 -1.78716,5.20607 0,3.41891 1.78716,5.20607 1.82601,1.78716 4.58446,1.78716 z m 20.86309,3.30236 q -1.67061,0 -3.14695,-0.69932 -1.4375,-0.69932 -2.33108,-1.98142 -0.85473,-1.32094 -0.85473,-3.14695 0,-2.75844 2.17567,-4.50675 2.21453,-1.78716 6.76013,-1.78716 h 4.701 v -0.31081 q 0,-2.60304 -1.28209,-3.69088 -1.28209,-1.12668 -3.92398,-1.12668 -1.63175,0 -2.875,0.31081 -1.20439,0.27196 -2.29222,0.62162 -0.31081,0.0777 -0.50507,0.0777 -0.58277,0 -1.01013,-0.42736 -0.42737,-0.42737 -0.42737,-1.04899 0,-1.04898 1.01014,-1.47635 1.35979,-0.58277 2.99155,-0.97128 1.6706,-0.42736 3.72972,-0.42736 2.83615,0 4.62331,1.12668 1.78716,1.12669 2.64188,2.875 0.85473,1.74831 0.85473,3.65202 v 10.99492 q 0,0.73817 -0.54392,1.24324 -0.50506,0.50507 -1.24324,0.50507 -0.73817,0 -1.24324,-0.50507 -0.50507,-0.50507 -0.50507,-1.24324 v -1.01013 q -1.04898,1.08783 -2.79729,2.02026 -1.74831,0.93243 -4.50675,0.93243 z m 1.32094,-3.1081 q 1.82602,0 3.41892,-0.89358 1.5929,-0.89358 2.56418,-2.02027 v -3.26351 h -4.23479 q -2.71959,0 -4.31249,0.69933 -1.55405,0.69932 -1.55405,2.36993 0,1.24324 0.85473,2.17567 0.89358,0.93243 3.2635,0.93243 z m 21.83433,3.1081 q -0.69932,0 -1.67061,-0.1554 -0.93243,-0.11656 -1.86486,-0.58277 -0.89358,-0.50507 -1.5152,-1.55405 -0.62162,-1.04899 -0.62162,-2.83615 v -12.0439 h -2.75844 q -0.73818,0 -0.73818,-0.73818 0,-0.38851 0.34966,-0.66047 l 5.28378,-5.16722 q 0.0777,-0.0777 0.23311,-0.19426 0.19425,-0.1554 0.42736,-0.1554 0.31081,0 0.50507,0.23311 0.23311,0.2331 0.23311,0.54391 v 3.10811 h 4.39019 q 0.66048,0 1.08784,0.42736 0.42736,0.42737 0.42736,1.08784 0,0.62162 -0.42736,1.08784 -0.42736,0.42736 -1.08784,0.42736 h -4.39019 v 11.73309 q 0,1.12669 0.42736,1.63176 0.42737,0.50506 1.01014,0.62162 0.62162,0.0777 1.08783,0.0777 0.93243,0 1.3598,-0.15541 0.46621,-0.19425 0.97128,-0.19425 0.54392,0 0.97128,0.38851 0.42737,0.38851 0.42737,1.01013 0,0.89358 -0.89358,1.3598 -0.69933,0.31081 -1.5152,0.50507 -0.77703,0.19425 -1.70946,0.19425 z m 13.05404,0 q -1.67061,0 -3.14696,-0.69932 -1.4375,-0.69932 -2.33108,-1.98142 -0.85472,-1.32094 -0.85472,-3.14695 0,-2.75844 2.17567,-4.50675 2.21452,-1.78716 6.76012,-1.78716 h 4.70101 v -0.31081 q 0,-2.60304 -1.28209,-3.69088 -1.28209,-1.12668 -3.92398,-1.12668 -1.63176,0 -2.875,0.31081 -1.20439,0.27196 -2.29223,0.62162 -0.31081,0.0777 -0.50506,0.0777 -0.58277,0 -1.01014,-0.42736 -0.42736,-0.42737 -0.42736,-1.04899 0,-1.04898 1.01013,-1.47635 1.3598,-0.58277 2.99155,-0.97128 1.67061,-0.42736 3.72973,-0.42736 2.83614,0 4.6233,1.12668 1.78716,1.12669 2.64189,2.875 0.85473,1.74831 0.85473,3.65202 v 10.99492 q 0,0.73817 -0.54392,1.24324 -0.50507,0.50507 -1.24324,0.50507 -0.73817,0 -1.24324,-0.50507 -0.50507,-0.50507 -0.50507,-1.24324 v -1.01013 q -1.04898,1.08783 -2.79729,2.02026 -1.74831,0.93243 -4.50675,0.93243 z m 1.32094,-3.1081 q 1.82601,0 3.41892,-0.89358 1.5929,-0.89358 2.56418,-2.02027 v -3.26351 h -4.23479 q -2.71959,0 -4.31249,0.69933 -1.55406,0.69932 -1.55406,2.36993 0,1.24324 0.85473,2.17567 0.89358,0.93243 3.26351,0.93243 z" id="text22" transform="matrix(0.29056645,0,0,0.29056645,-11.027129,3.0840107)" aria-label="data"/>
  </g>
  <g inkscape:groupmode="layer" id="layer2" inkscape:label="frame" transform="translate(-30.975453,-17.719192)" style="display:inline">
    <g id="g12" style="stroke:#f9be9f;stroke-width:2;stroke-dasharray:none;stroke-opacity:1">
      <g id="g11" style="stroke:#f9be9f;stroke-width:2;stroke-dasharray:none;stroke-opacity:1">
        <path d="m 58.642415,23.159827 a 14.233227,14.233227 0 0 1 0.02377,0.01964 14.233227,14.233227 0 0 1 0.535367,0.483174 14.233227,14.233227 0 0 1 0.50953,0.510047 14.233227,14.233227 0 0 1 0.483691,0.534851 14.233227,14.233227 0 0 1 0.455787,0.559139 14.233227,14.233227 0 0 1 0.426847,0.58136 14.233227,14.233227 0 0 1 0.396875,0.60203 14.233227,14.233227 0 0 1 0.365869,0.621151 14.233227,14.233227 0 0 1 0.33383,0.639237 14.233227,14.233227 0 0 1 0.300757,0.655257 14.233227,14.233227 0 0 1 0.267684,0.669727 14.233227,14.233227 0 0 1 0.23306,0.682646 14.233227,14.233227 0 0 1 0.198438,0.692981 14.233227,14.233227 0 0 1 0.163297,0.702799 14.233227,14.233227 0 0 1 0.127124,0.709518 14.233227,14.233227 0 0 1 0.09095,0.715718 14.233227,14.233227 0 0 1 0.05478,0.718819 14.233227,14.233227 0 0 1 0.01809,0.720887 14.233227,14.233227 0 0 1 -0.144694,2.025716 14.233227,14.233227 0 0 1 -0.431499,1.984375 14.233227,14.233227 0 0 1 -0.710034,1.902726 14.233227,14.233227 0 0 1 -0.973067,1.78232 14.233227,14.233227 0 0 1 -1.21698,1.625741 14.233227,14.233227 0 0 1 -1.436088,1.436088 14.233227,14.233227 0 0 1 -0.187069,0.140043 l 2.83962,3.388423 a 18.639271,18.639271 0 0 0 1.67535,-1.591634 18.639271,18.639271 0 0 0 1.46606,-1.785937 18.639271,18.639271 0 0 0 1.233517,-1.954403 18.639271,18.639271 0 0 0 0.981852,-2.091345 18.639271,18.639271 0 0 0 0.716235,-2.197282 18.639271,18.639271 0 0 0 0.438217,-2.269112 18.639271,18.639271 0 0 0 0.154512,-2.305286 18.639271,18.639271 0 0 0 -0.0026,-0.404626 18.639271,18.639271 0 0 0 -0.01085,-0.404627 18.639271,18.639271 0 0 0 -0.02015,-0.404109 18.639271,18.639271 0 0 0 -0.02894,-0.403593 18.639271,18.639271 0 0 0 -0.03721,-0.403076 18.639271,18.639271 0 0 0 -0.04651,-0.402043 18.639271,18.639271 0 0 0 -0.05478,-0.400492 18.639271,18.639271 0 0 0 -0.06356,-0.399976 18.639271,18.639271 0 0 0 -0.07235,-0.397909 18.639271,18.639271 0 0 0 -0.08113,-0.396358 18.639271,18.639271 0 0 0 -0.0894,-0.394808 18.639271,18.639271 0 0 0 -0.09819,-0.392741 18.639271,18.639271 0 0 0 -0.106453,-0.390157 18.639271,18.639271 0 0 0 -0.115239,-0.38809 18.639271,18.639271 0 0 0 -0.123506,-0.385506 18.639271,18.639271 0 0 0 -0.131258,-0.382405 18.639271,18.639271 0 0 0 -0.140043,-0.379822 18.639271,18.639271 0 0 0 -0.148312,-0.376205 18.639271,18.639271 0 0 0 -0.156579,-0.373104 18.639271,18.639271 0 0 0 -0.164331,-0.370003 18.639271,18.639271 0 0 0 -0.1726,-0.365869 A 18.639271,18.639271 0 0 0 65.989752,25.49147 18.639271,18.639271 0 0 0 65.801668,25.13335 18.639271,18.639271 0 0 0 65.605815,24.778849 18.639271,18.639271 0 0 0 65.402209,24.429517 18.639271,18.639271 0 0 0 65.19137,24.084318 18.639271,18.639271 0 0 0 64.972778,23.74377 18.639271,18.639271 0 0 0 64.746952,23.407874 18.639271,18.639271 0 0 0 64.513892,23.077144 18.639271,18.639271 0 0 0 64.273596,22.751583 18.639271,18.639271 0 0 0 64.026583,22.431189 18.639271,18.639271 0 0 0 63.772335,22.115963 18.639271,18.639271 0 0 0 63.511369,21.806938 18.639271,18.639271 0 0 0 63.243685,21.50308 18.639271,18.639271 0 0 0 62.9698,21.205424 18.639271,18.639271 0 0 0 62.689197,20.913969 18.639271,18.639271 0 0 0 62.402393,20.628198 18.639271,18.639271 0 0 0 62.109387,20.349146 18.639271,18.639271 0 0 0 61.810697,20.076294 18.639271,18.639271 0 0 0 61.505806,19.81016 Z" style="fill:none;stroke:#f9be9f;stroke-width:2;stroke-linecap:square;stroke-linejoin:round;stroke-dasharray:none;stroke-opacity:1" id="path8"/>
        <path d="m 61.600374,26.902234 a 14.107161,14.107161 0 0 1 0.273369,0.483691 14.107161,14.107161 0 0 1 0.339514,0.684713 14.107161,14.107161 0 0 1 0.30179,0.701766 14.107161,14.107161 0 0 1 0.26355,0.717269 14.107161,14.107161 0 0 1 0.224276,0.730188 14.107161,14.107161 0 0 1 0.184485,0.741557 14.107161,14.107161 0 0 1 0.144177,0.750341 14.107161,14.107161 0 0 1 0.102836,0.75706 14.107161,14.107161 0 0 1 0.06201,0.761194 14.107161,14.107161 0 0 1 0.02067,0.763778 14.107161,14.107161 0 0 1 -0.173633,2.2071 14.107161,14.107161 0 0 1 -0.516764,2.152324 14.107161,14.107161 0 0 1 -0.846977,2.045353 14.107161,14.107161 0 0 1 -0.199987,0.326595 l 8.019665,4.188891 a 23.109167,23.109167 0 0 0 0.253731,-0.499711 23.109167,23.109167 0 0 0 0.240813,-0.505395 23.109167,23.109167 0 0 0 0.228926,-0.511597 23.109167,23.109167 0 0 0 0.216524,-0.516764 23.109167,23.109167 0 0 0 0.203606,-0.521932 23.109167,23.109167 0 0 0 0.191202,-0.526583 23.109167,23.109167 0 0 0 0.178284,-0.531234 23.109167,23.109167 0 0 0 0.165365,-0.535368 23.109167,23.109167 0 0 0 0.152445,-0.538985 23.109167,23.109167 0 0 0 0.13901,-0.543119 23.109167,23.109167 0 0 0 0.12609,-0.545703 23.109167,23.109167 0 0 0 0.112655,-0.548804 23.109167,23.109167 0 0 0 0.09922,-0.551387 23.109167,23.109167 0 0 0 0.08578,-0.553972 23.109167,23.109167 0 0 0 0.07286,-0.555521 23.109167,23.109167 0 0 0 0.05891,-0.557072 23.109167,23.109167 0 0 0 0.04548,-0.558106 23.109167,23.109167 0 0 0 0.03204,-0.559656 23.109167,23.109167 0 0 0 0.0186,-0.560172 23.109167,23.109167 0 0 0 0.0046,-0.560173 23.109167,23.109167 0 0 0 -0.0088,-0.560172 23.109167,23.109167 0 0 0 -0.02222,-0.559656 23.109167,23.109167 0 0 0 -0.03617,-0.559139 23.109167,23.109167 0 0 0 -0.04961,-0.558105 23.109167,23.109167 0 0 0 -0.06253,-0.556556 23.109167,23.109167 0 0 0 -0.07648,-0.555521 23.109167,23.109167 0 0 0 -0.08992,-0.552938 23.109167,23.109167 0 0 0 -0.103353,-0.550354 23.109167,23.109167 0 0 0 -0.116789,-0.548287 23.109167,23.109167 0 0 0 -0.129707,-0.545186 23.109167,23.109167 0 0 0 -0.143144,-0.541569 23.109167,23.109167 0 0 0 -0.156063,-0.537952 23.109167,23.109167 0 0 0 -0.168982,-0.534334 23.109167,23.109167 0 0 0 -0.181901,-0.529684 23.109167,23.109167 0 0 0 -0.19482,-0.525549 23.109167,23.109167 0 0 0 -0.207739,-0.520382 23.109167,23.109167 0 0 0 -0.220142,-0.515214 23.109167,23.109167 0 0 0 -0.232544,-0.510046 23.109167,23.109167 0 0 0 -0.244429,-0.503845 23.109167,23.109167 0 0 0 -0.256832,-0.497644 23.109167,23.109167 0 0 0 -0.269234,-0.49196 23.109167,23.109167 0 0 0 -0.280603,-0.484725 z" style="fill:none;fill-opacity:0;stroke:#f9be9f;stroke-width:2;stroke-linecap:square;stroke-linejoin:round;stroke-dasharray:none;stroke-opacity:1" id="path13"/>
        <path style="fill:none;stroke:#f9be9f;stroke-width:2;stroke-linecap:square;stroke-linejoin:round;stroke-dasharray:none;stroke-opacity:1" d="m 63.395655,35.866525 8.494705,1.730404" id="path10"/>
        <path style="fill:none;stroke:#f9be9f;stroke-width:2;stroke-linecap:square;stroke-linejoin:round;stroke-dasharray:none;stroke-opacity:1" d="m 63.395655,31.304555 8.337397,-1.573093" id="path11"/>
      </g>
      <path style="fill:none;stroke:#f9be9f;stroke-width:2;stroke-linecap:round;stroke-linejoin:round;stroke-dasharray:none;stroke-opacity:1" id="path12" sodipodi:type="arc" sodipodi:cx="49.237816" sodipodi:cy="33.978817" sodipodi:rx="17.230442" sodipodi:ry="17.230442" sodipodi:start="4.0660296" sodipodi:end="4.2294201" sodipodi:arc-type="arc" d="m 38.860193,20.224069 a 17.230442,17.230442 0 0 1 2.375624,-1.504877" sodipodi:open="true"/>
      <path style="fill:none;stroke:#f9be9f;stroke-width:2;stroke-linecap:round;stroke-linejoin:round;stroke-dasharray:none;stroke-opacity:1" id="path12-1" sodipodi:type="arc" sodipodi:cx="49.205894" sodipodi:cy="34.057484" sodipodi:rx="17.230442" sodipodi:ry="17.230442" sodipodi:start="3.0382093" sodipodi:end="3.3111615" sodipodi:arc-type="arc" d="m 32.067451,35.835653 a 17.230442,17.230442 0 0 1 0.155127,-4.685934" sodipodi:open="true"/>
      <path style="fill:none;stroke:#f9be9f;stroke-width:2;stroke-linecap:round;stroke-linejoin:round;stroke-dasharray:none;stroke-opacity:1" id="path12-18" sodipodi:type="arc" sodipodi:cx="49.193039" sodipodi:cy="33.944946" sodipodi:rx="17.230442" sodipodi:ry="17.230442" sodipodi:start="2.6616567" sodipodi:end="2.7961599" sodipodi:arc-type="arc" d="M 33.909215,41.900627 A 17.230442,17.230442 0 0 1 32.980416,39.779241" sodipodi:open="true"/>
      <g id="g1" style="stroke:#f9be9f;stroke-width:2;stroke-dasharray:none;stroke-opacity:1"/>
    </g>
  </g>
  <g inkscape:groupmode="layer" id="layer4" inkscape:label="cube 1">
    <g id="g4" transform="translate(-0.38852211,-0.12950737)" inkscape:path-effect="#path-effect5;#path-effect6">
      <path style="fill:#f9be9f;fill-opacity:1;stroke:#f3ccbe;stroke-width:0;stroke-linecap:round;stroke-dasharray:none;stroke-opacity:1" id="rect4" width="7.770442" height="7.770442" x="5.3861823" y="12.402156" sodipodi:type="rect" d="m 5.7861056,13.523707 c 0.6945895,-0.204616 2.165175,-0.705005 3.7269733,-1.123025 1.5787891,-0.422568 3.0619231,-0.693877 3.0619231,-0.693877 -0.168392,1.558755 -0.289568,3.489887 -0.226597,5.680687 0.05712,1.987235 0.254251,3.505824 0.254251,3.505824 C 11.369422,20.776119 9.7140931,20.579968 8.0477743,20.263434 6.5561968,19.980093 5.786583,19.737115 5.786583,19.737115 5.1443664,17.626619 5.1441603,15.747715 5.7861056,13.523707 Z"/>
      <path style="fill:#f9be9f;fill-opacity:1;stroke:#f3ccbe;stroke-width:0;stroke-linecap:round;stroke-dasharray:none;stroke-opacity:1" id="rect4-3" width="7.770442" height="7.770442" x="14.744127" y="12.402156" sodipodi:type="rect" d="m 14.408344,11.41569 c 1.732419,-0.23051 3.721817,-0.368622 5.91356,-0.293399 1.988756,0.06826 3.465764,0.292605 3.465764,0.292605 0.280599,2.365531 0.319061,4.590347 0.225699,6.554627 -0.08751,1.841148 -0.258119,3.023407 -0.258119,3.023407 -1.659419,0.130458 -3.619164,0.211895 -5.806237,0.184104 -1.991671,-0.02531 -3.515147,-0.13697 -3.515147,-0.13697 -0.1297,-1.73197 -0.209085,-3.754966 -0.174317,-6.01783 0.03158,-2.055447 0.148797,-3.606544 0.148797,-3.606544 z"/>
      <path style="fill:#f9be9f;fill-opacity:1;stroke:#f3ccbe;stroke-width:0;stroke-linecap:round;stroke-dasharray:none;stroke-opacity:1" id="rect4-9" width="7.770442" height="7.770442" x="24.102068" y="12.402156" sodipodi:type="rect" d="m 25.554667,11.699989 c 1.643305,0.308586 3.079575,0.697888 4.457224,1.13313 1.175142,0.371264 1.685987,0.539136 1.685987,0.539136 0.293426,0.950474 0.578217,2.213942 0.46911,3.710556 -0.09857,1.352098 -0.507104,2.50212 -0.507104,2.50212 -0.63336,0.243885 -1.713019,0.548649 -3.291237,0.832353 -1.449127,0.260499 -2.861849,0.409965 -2.861849,0.409965 0.220883,-1.33588 0.436991,-3.21438 0.379626,-5.457787 -0.05207,-2.036264 -0.331757,-3.669473 -0.331757,-3.669473 z"/>
      <path style="fill:#f9be9f;fill-opacity:1;stroke:#f3ccbe;stroke-width:0;stroke-linecap:round;stroke-dasharray:none;stroke-opacity:1" id="rect4-30" width="7.770442" height="7.770442" x="24.102068" y="21.760098" sodipodi:type="rect" d="m 25.163411,22.573023 c 1.519782,-0.260004 2.982874,-0.617119 4.299795,-1.054576 1.176454,-0.390797 1.729979,-0.664268 1.729979,-0.664268 -0.423049,1.035653 -1.212141,2.588822 -1.684271,3.883078 -0.477237,1.308257 -0.490952,2.329598 -0.490952,2.329598 -1.169818,-0.0073 -2.362238,0.38987 -3.770541,0.945064 -1.252312,0.493698 -2.254832,0.877007 -2.254832,0.877007 0.279658,-0.647865 0.834267,-1.873661 1.357853,-3.431446 0.496117,-1.47606 0.812969,-2.884457 0.812969,-2.884457 z"/>
      <path style="fill:#f9be9f;fill-opacity:1;stroke:#f3ccbe;stroke-width:0;stroke-linecap:round;stroke-dasharray:none;stroke-opacity:1" id="rect4-5" width="7.770442" height="7.770442" x="14.744127" y="21.760098" sodipodi:type="rect" d="m 14.597483,22.862538 c 1.645378,0.177628 3.541269,0.278586 5.608778,0.208646 1.88008,-0.0636 3.279797,-0.253071 3.279797,-0.253071 -0.286884,1.671266 -0.666316,3.225474 -1.107934,4.651087 -0.389764,1.258216 -0.616758,1.814132 -0.616758,1.814132 -1.142517,0.318291 -2.382389,0.51721 -3.792305,0.40863 -1.272569,-0.098 -2.298394,-0.419436 -2.298394,-0.419436 -0.152935,-0.638761 -0.420569,-1.807826 -0.680329,-3.429647 -0.241864,-1.510084 -0.392855,-2.980341 -0.392855,-2.980341 z"/>
      <path style="fill:#f9be9f;fill-opacity:1;stroke:#f3ccbe;stroke-width:0;stroke-linecap:round;stroke-dasharray:none;stroke-opacity:1" id="rect4-2" width="7.770442" height="7.770442" x="5.3861823" y="21.760098" sodipodi:type="rect" d="m 6.2178313,20.965873 c 0.5956475,0.222085 1.7954474,0.642276 3.4803633,1.049567 1.5728874,0.38021 3.1486174,0.618637 3.1486174,0.618637 0.262266,1.602714 0.60619,3.067354 1.009457,4.453158 0.353618,1.215191 0.554749,1.782978 0.554749,1.782978 C 13.731051,28.628684 12.181419,27.960574 10.79714,27.485376 9.3929353,27.003337 8.1994037,26.938881 8.1994037,26.938881 8.2131656,25.765384 7.7813089,24.589675 7.1756554,23.19907 6.6370071,21.962311 6.2178313,20.965873 6.2178313,20.965873 Z"/>
      <path style="fill:#f9be9f;fill-opacity:1;stroke:#f3ccbe;stroke-width:0;stroke-linecap:round;stroke-dasharray:none;stroke-opacity:1" id="rect4-25" width="7.770442" height="7.770442" x="5.3861823" y="3.0442128" sodipodi:type="rect" d="M 8.199917,5.8891777 C 9.403528,5.8613808 10.605072,5.3455123 12.016053,4.6434256 13.26995,4.0195021 14.269014,3.5448268 14.269014,3.5448268 14.091838,4.1504072 13.717166,5.3785995 13.359471,6.9723977 13.021048,8.480326 12.80603,9.9232966 12.80603,9.9232966 11.161046,10.321759 9.6889045,10.830097 8.184901,11.42892 6.8950556,11.942475 6.2172412,12.218622 6.2172412,12.218622 6.6084996,11.151139 7.3396606,9.5412909 7.7697051,8.2232001 8.2048636,6.889435 8.199917,5.8891777 8.199917,5.8891777 Z"/>
      <path style="fill:#f9be9f;fill-opacity:1;stroke:#f3ccbe;stroke-width:0;stroke-linecap:round;stroke-dasharray:none;stroke-opacity:1" id="rect4-37" width="7.770442" height="7.770442" x="14.744127" y="3.0442128" sodipodi:type="rect" d="m 15.49881,3.0562904 c 1.142581,-0.3928313 2.383865,-0.6329571 3.806739,-0.4926524 1.284458,0.126656 2.324349,0.5260953 2.324349,0.5260953 0.315458,0.6366967 0.784737,1.7917912 1.233862,3.4579255 0.414599,1.5380547 0.658697,3.0260346 0.658697,3.0260346 C 21.910499,9.2829071 20.030959,9.1018668 17.926801,9.1917477 16.015492,9.2733909 14.558285,9.5580274 14.558285,9.5580274 14.719639,7.8478403 14.932948,6.2733656 15.175768,4.8322085 15.388774,3.5679967 15.49881,3.0562904 15.49881,3.0562904 Z"/>
      <path style="fill:#f9be9f;fill-opacity:1;stroke:#f3ccbe;stroke-width:0;stroke-linecap:round;stroke-dasharray:none;stroke-opacity:1" id="rect4-8" width="7.770442" height="7.770442" x="24.102068" y="3.0442128" sodipodi:type="rect" d="m 22.907146,3.5876111 c 1.044493,0.4510752 2.619476,1.2913156 3.920439,1.7904902 1.318773,0.5060085 2.319884,0.5122294 2.319884,0.5122294 -0.0073,1.1970082 0.451969,2.4274667 1.091374,3.8830775 0.568527,1.2942558 1.00786,2.3295978 1.00786,2.3295978 C 30.780824,11.925384 29.58601,11.372138 28.153964,10.845741 26.705203,10.3132 25.221318,9.9388893 25.221318,9.9388893 24.863016,8.3305671 24.370026,6.7954365 23.775225,5.3954508 23.245522,4.148687 22.907146,3.5876111 22.907146,3.5876111 Z"/>
    </g>
  </g>
  <g inkscape:groupmode="layer" id="g22" inkscape:label="globe" transform="translate(-30.975453,-17.719192)" style="display:inline">
    <g id="g21" style="display:inline;stroke:#f3722c;stroke-width:2.2;stroke-dasharray:none;stroke-opacity:1">
      <g id="g20" style="stroke:#f3722c;stroke-width:2.2;stroke-linecap:square;stroke-dasharray:none;stroke-opacity:1">
        <path id="path20" style="fill:none;fill-opacity:0;stroke:#f3722c;stroke-width:2.2;stroke-linecap:square;stroke-linejoin:round;stroke-dasharray:none;stroke-opacity:1" d="M 63.628452,33.979225 A 14.233227,14.233227 0 0 1 49.395226,48.212452 14.233227,14.233227 0 0 1 35.161999,33.979225 14.233227,14.233227 0 0 1 49.395226,19.745998 14.233227,14.233227 0 0 1 63.628452,33.979225 Z"/>
      </g>
      <g inkscape:groupmode="layer" id="layer3" inkscape:label="cube" style="stroke:#f3722c;stroke-width:2.2;stroke-dasharray:none;stroke-opacity:1"/>
    </g>
  </g>
</svg>
