<?xml version="1.0" encoding="UTF-8" standalone="no"?>
<!-- Created with Inkscape (http://www.inkscape.org/) -->

<svg
   version="1.1"
   id="svg1"
   width="308"
   height="284"
   viewBox="0 0 308 284"
   sodipodi:docname="octahedral-grid.svg"
   inkscape:version="1.3 (0e150ed, 2023-07-21)"
   xmlns:inkscape="http://www.inkscape.org/namespaces/inkscape"
   xmlns:sodipodi="http://sodipodi.sourceforge.net/DTD/sodipodi-0.dtd"
   xmlns="http://www.w3.org/2000/svg"
   xmlns:svg="http://www.w3.org/2000/svg">
  <defs
     id="defs1" />
  <sodipodi:namedview
     id="namedview1"
     pagecolor="#ffffff"
     bordercolor="#000000"
     borderopacity="0.25"
     inkscape:showpageshadow="2"
     inkscape:pageopacity="0.0"
     inkscape:pagecheckerboard="0"
     inkscape:deskcolor="#d1d1d1"
     inkscape:zoom="2.0555558"
     inkscape:cx="161.51349"
     inkscape:cy="162.72971"
     inkscape:window-width="1512"
     inkscape:window-height="916"
     inkscape:window-x="0"
     inkscape:window-y="38"
     inkscape:window-maximized="0"
     inkscape:current-layer="g1" />
  <g
     inkscape:groupmode="layer"
     inkscape:label="Image"
     id="g1">
    <path
       style="fill:#000000"
       d="m -0.00234883,279.75 -0.00234883,-4.25 8.00234886,0.32615 c 9.5289218,0.38836 9.4606148,0.60777 2.3895828,-7.67539 -3.0870206,-3.6162 -5.8351656,-7.15448 -6.1069884,-7.86283 C 3.4805487,258.20395 1.1805733,258.81219 0.64227755,261.25 0.36902416,262.4875 0.34780847,257.425 0.59513158,250 1.1558496,233.16643 1.1590271,233.52509 0.39605355,227.52943 l -0.6325266,-4.97057 1.55915185,1.29398 1.5591519,1.29398 0.5424391,-3.32341 c 0.2983415,-1.82788 0.6624296,-5.79719 0.8090847,-8.8207 L 4.5,207.50541 2.25,206.51558 C -0.31552048,205.38694 -0.72902503,204 1.5,204 c 1.9216936,0 1.9216936,-1.40514 0,-3 -0.825,-0.68469 -1.48577944,-2.42729 -1.46839876,-3.87244 L 0.06320249,194.5 l 2.53509551,2.8833 2.5350955,2.88331 1.1833032,-1.18163 C 7.0230561,198.37962 7.5,194.7991 7.5,190.20167 V 182.5 L 3.75,182.18963 0,181.87927 v -2.04662 c 0,-1.42233 0.45755592,-1.86147 1.5,-1.43964 0.825,0.33385 2.175,0.88013 3,1.21398 2.4200169,0.97928 1.7327495,-1.43464 -1.5832648,-5.56098 -1.7917904,-2.22964 -2.94367154,-4.70593 -2.74999999,-5.91188 L 0.5,166.05896 l 4,4.92075 c 5.3651991,6.60021 7.5,4.20282 7.5,-8.42253 V 158 H 9.125 C 3.9549279,158 0,156.80714 0,155.24777 l 0,-1.50223 5,0.48044 c 6.150416,0.59098 6.150416,0.54804 0,-6.72598 -3.1487034,-3.72393 -4.99816087,-6.85511 -4.99503286,-8.45672 L 0.00993429,136.5 2.2549671,139.22365 C 3.4897352,140.72166 6.3,144.19111 8.5,146.93355 c 5.213688,6.49917 8.347902,2.4848 7.337185,-9.39764 L 15.5,133.57182 l -4,-0.31661 C 9.3,133.08107 6.375,132.79771 5,132.62552 3.625,132.45333 1.9375,132.24215 1.25,132.15622 -3.1360416,131.60806 1.1521644,130 7,130 c 5.998354,0 8.912415,-1.0149 6.221108,-2.16667 C 12.792718,127.65 9.6427176,124.154 6.2211081,120.06444 L 0,112.62889 -0.00229604,109.06444 -0.00459209,105.5 8.997704,105.82097 C 19.84558,106.20774 19.765308,106.84776 10.25,95.836187 L 2.5,86.867516 1.778571,91.071853 C 0.57660613,98.076655 0,96.810607 0,87.166667 0,81.722222 0.40606061,78 1,78 1.55,78 2,76.656458 2,75.014351 2,73.372244 2.5554853,69.951805 3.2344117,67.413375 L 4.4688235,62.798049 2.4844117,61.149024 C 1.1628677,60.050836 0.40321999,58.009647 0.2102719,55.038363 L -0.07945619,50.576727 2.4563288,52.958973 C 3.8510106,54.269209 5.1412516,55.151945 5.3235309,54.92061 6.2345377,53.764428 8.1578962,43.167512 7.8514036,40.993069 L 7.5,38.5 3.75,38.189635 0,37.879269 0,35.997052 C 0,34.156075 2.4358097,33.915243 5.0037593,35.502323 7.2759349,36.906605 5.7743834,33.158028 3,30.5 1.1486302,28.726275 0.01657628,26.644539 0.04329404,25.062909 L 0.08658807,22.5 4.8584504,27.825097 9.6303127,33.150193 10.827991,29.325097 c 0.658723,-2.103804 1.304403,-5.833271 1.434844,-8.287706 L 12.5,16.574782 11,16.350943 C 10.175,16.227832 7.3625,15.845933 4.75,15.502279 1.3540403,15.055568 0,14.427623 0,13.299436 l 0,-1.578018 5,0.592176 c 6.24784,0.739964 6.287714,0.01268 0.3785262,-6.9041017 L 0.75705249,0 3.1285262,0.05694929 C 4.7605068,0.09614017 6.6740979,1.6552829 9.2652035,5.0569493 13.521712,10.644997 15.99281,11.448032 16.013655,7.25 16.035391,2.8723529 17.111623,0 18.730131,0 l 1.496868,0 -0.650192,3.25 C 19.219202,5.0375 18.70523,7.625 18.434648,9 c -0.866586,4.403671 0.509254,5.112631 9.301708,4.793098 L 35.801406,13.5 29.916055,7 24.030703,0.5 25.726002,0.13610826 c 1.061911,-0.22793653 3.864125,1.92930484 7.500283,5.77397784 l 5.804984,6.1378699 1.072137,-2.7739782 C 40.693082,7.74829 41.419925,5.0375 41.718614,3.25 42.01832,1.4564168 42.86667,0 43.611712,0 l 1.350027,0 -0.664743,4.75 c -0.365608,2.6125 -0.6945,5.65 -0.730869,6.75 l -0.06613,2 9,0.287421 9,0.287421 L 54.52682,7.0374209 47.553639,0 49.997822,0 c 1.62863,0 4.339324,1.8753664 8.123853,5.620405 C 64.606278,12.037344 66,11.917151 66,4.940983 V 0 l 2.108408,0 2.108408,0 -0.798804,2.75 C 68.97867,4.2625 68.592386,7.290159 68.559604,9.4781312 L 68.5,13.456262 l 1.797134,0.35427 c 0.988423,0.194849 5.001953,-0.186292 8.918955,-0.84698 L 86.337909,11.762301 79.918955,5.924653 73.5,0.08700476 75.896295,0.04350238 C 77.396304,0.0162712 80.091998,1.6831353 83.103454,4.5 89.01803,10.032393 90,10.099117 90,4.9686152 c 0,-2.7110385 0.5054,-4.22532512 1.543128,-4.62353859 2.383127,-0.91449177 2.808048,0.2298333 1.70257,4.58507599 l -1.01581,4.0019781 1.233352,1.6867093 c 0.778339,1.064443 1.723529,1.383764 2.56202,0.865549 0.730767,-0.451639 4.0255,-1.082888 7.32162,-1.402776 7.50824,-0.728672 7.87002,-1.8011551 2.06879,-6.1329393 L 100.79712,0.5 102.90197,0.18000284 c 1.22846,-0.18676255 3.63194,0.93876856 5.77257,2.70325236 C 112.72175,6.2193123 114,6.1131557 114,2.440983 114,0.85443459 114.56881,0 115.625,0 h 1.625 l -0.58256,2.9127806 c -0.77198,3.8599106 1.12902,5.4953025 4.77602,4.1087147 C 122.92117,6.4596729 125.3649,6 126.87397,6 c 1.50907,0 3.61728,-0.6471769 4.6849,-1.4381708 L 133.5,3.1236584 l -2,-1.4965285 -2,-1.49652854 5.25,0.0306895 c 2.8875,0.0168792 5.25,0.48672663 5.25,1.04410533 0,0.6273397 1.42862,0.7499469 3.75,0.3218332 2.0625,-0.3803705 7.2681,-0.91483015 11.56799,-1.18768811 l 7.81799,-0.49610538 7.30289,6.04073929 C 178.69535,12.713703 179,12.694101 179,5.3333333 V 0 h 1.5 1.5 v 6.5673877 l 0,6.5673873 2.25,-0.6469 c 3.04701,-0.87605 8.98238,-3.5398221 10.42218,-4.6774324 0.84086,-0.6643799 0.13423,-1.8914414 -2.5,-4.3412443 L 188.5,0.05411518 191.12756,0.02705759 C 192.57271,0.01217591 194.31531,0.675 195,1.5 c 1.59486,1.9216936 3,1.9216936 3,0 0,-0.825 0.675,-1.5 1.5,-1.5 0.83333,0 1.5,0.88888889 1.5,2 0,2.5417536 2.01775,2.5417536 7,0 2.27854,-1.16242247 5.89377,-2 8.63258,-2 l 4.71226,0 5.74863,5 C 234.14536,11.133553 234,11.135307 234,4.9166667 c 0,-6.3774341 2.1285,-6.2705887 3.22552,0.161913 0.41472,2.4317811 0.97903,5.0087103 1.25402,5.7265093 l 0.49997,1.30509 4.51024,-3.1031303 c 4.90975,-3.3779919 5.33975,-4.4329797 2.9039,-7.12456 l -1.60634,-1.77499262 7.16681,0.0674358 7.16682,0.0674358 -2.2666,2.41268448 -2.2666,2.4126845 6.16946,6.1694653 c 6.69941,6.699403 7.64714,6.955567 6.31383,1.706569 C 266.58992,11.049697 265.93572,7.3625 265.61727,4.75 L 265.03826,0 h 1.37146 c 1.38194,0 2.03045,2.5653804 3.22313,12.75 0.73307,6.25987 1.97475,6.599889 6.26356,1.715204 3.82299,-4.35415 3.95301,-3.514451 -1.39641,-9.0185967 -2.475,-2.5465879 -4.5,-4.81386043 -4.5,-5.03838352 0,-1.39211449 3.83019,0.0129673 6.18485,2.26887392 3.08892,2.9593705 4.59473,2.6480744 2.86099,-0.5914513 L 277.92963,0 H 279.96482 282 v 2.440983 c 0,3.9133867 2.0872,4.2171476 5.0003,0.72772 L 289.64565,0 h 3.10625 3.10626 l 5.17414,5.25 c 2.93667,2.9797276 4.8765,4.3851343 4.48584,3.25 -1.42747,-4.1478533 -1.77778,-8.5 -0.68417,-8.5 2.14367,0 3.16547,3.9834532 3.12539,12.184259 l -0.0406,8.315741 -2.95936,3.462226 c -3.68587,4.312183 -3.68226,5.144843 0.0406,9.384993 1.65,1.879246 2.98578,4.482404 2.9684,5.784796 L 307.9368,41.5 305.51636,38.75 C 304.18513,37.2375 302.84935,36 302.54797,36 c -0.97316,0 -0.5811,12.782673 0.47746,15.566877 l 1.02542,2.697077 1.97458,-1.786965 1.97457,-1.786964 0,2.59597 c 0,1.427784 -0.45,2.874086 -1,3.214005 -0.55,0.339919 -1,1.689919 -1,3 0,1.310081 0.45,2.660081 1,3 0.55,0.339919 0.98569,1.828976 0.9682,3.309017 L 307.93639,68.5 306.60795,66.75 c -2.33199,-3.072012 -2.68932,-1.953236 -2.39548,7.5 l 0.28753,9.25 1.84847,-0.155301 1.84848,-0.155302 -0.63868,2.655302 c -0.75986,3.159126 -0.76083,3.624971 -0.017,8.155301 l 0.57465,3.5 -1.40683,-1.734456 C 304.49274,93.033058 304,94.664281 304,104.73405 l 0,9.40073 2,-0.63478 c 2.12107,-0.6732 2.94482,1.79804 1,3 -1.29656,0.80132 -1.29656,5.19868 0,6 0.55,0.33992 0.98999,2.05398 0.97776,3.80902 l -0.0222,3.19098 -1.90937,-2.48506 c -2.7435,-3.57069 -3.50104,-2.00197 -3.89566,8.06715 -0.37632,9.60224 -0.31767,9.72878 3.38468,7.3029 L 308,140.76998 v 1.59196 c 0,0.87557 -1.125,2.32908 -2.5,3.23002 -3.14604,2.06136 -3.13296,3.47442 0.0869,9.39036 1.4228,2.61414 2.43133,5.82504 2.24119,7.13533 l -0.3457,2.38235 -2.90012,-5.25 c -4.19867,-7.60074 -4.64328,-7.02885 -6.21956,8 -0.6831,6.51288 -0.46861,6.6441 5.3873,3.29593 l 4.25,-2.42997 0,1.80306 c 0,1.11575 -1.70975,2.71008 -4.48529,4.1825 -5.82211,3.08862 -6.03278,3.93182 -2.48547,9.94807 1.63392,2.77113 2.97076,5.46862 2.97076,5.99442 0,2.01783 1.87949,0.82961 2.83772,-1.79401 l 1.00439,-2.75 0.0789,8.75 c 0.0434,4.8125 -0.3138,8.75 -0.79382,8.75 -0.48002,0 -1.13583,2.1375 -1.45734,4.75 -0.32151,2.6125 -0.99511,6.67219 -1.49689,9.02154 -0.98345,4.60454 -0.0707,6.21841 2.3708,4.19211 L 308,219.75511 v 1.8819 c 0,1.03504 -0.9,2.44396 -2,3.13092 -1.1,0.68696 -2,2.13152 -2,3.21013 0,1.07861 0.9,3.56348 2,5.52194 l 2,3.56083 0,11.53533 c 0,6.34443 -0.38662,12.29324 -0.85915,13.21958 -0.47253,0.92634 -1.14577,3.19423 -1.4961,5.03975 l -0.63695,3.35549 1.4961,-0.5741 c 1.99738,-0.76647 1.93836,1.75119 -0.0803,3.42654 l -1.57642,1.30832 0.63505,3.38514 c 0.34928,1.86183 0.88182,4.02819 1.18341,4.81413 0.32416,0.84473 -0.061,1.42899 -0.942,1.42899 -0.8197,0 -1.72571,-0.9 -2.01337,-2 -0.28766,-1.1 -0.98482,-2 -1.54924,-2 -0.56443,0 -1.31188,0.9 -1.66101,2 -0.34913,1.1 -1.24804,2 -1.99758,2 h -1.36281 l 0.91309,-3.18377 c 1.28941,-4.49588 -7.91608,-2.94179 -9.6715,1.63276 L 287.78602,284 h -5.95203 c -3.71337,0 -5.71957,-0.37612 -5.33399,-1 0.33992,-0.55 1.46115,-1 2.49163,-1 2.95254,0 3.41386,-3.60593 1.09298,-8.54338 C 278.93808,271.01747 278,268.56689 278,268.0109 c 0,-4.57902 -2.84732,0.69557 -5.52725,10.2391 l -1.61467,5.75 h -3.41219 -3.4122 L 261.5,279 c -2.86354,-5.65092 -4.1957,-6.24444 -5.05016,-2.25 -0.92132,4.307 -2.31301,7.25 -3.4284,7.25 -1.33394,0 -1.31033,-3.5917 0.0402,-6.11519 0.58391,-1.09105 0.92141,-3.02815 0.75,-4.30468 L 253.5,271.25916 248,272.98928 c -6.05281,1.90401 -6.82609,3.19132 -4.54983,7.57429 l 1.52502,2.93643 -1.16344,0.39195 c -0.6399,0.21557 -1.94395,-0.57193 -2.89789,-1.75 C 238.75275,279.47309 238,279.43642 238,282 c 0,1.33333 -0.66667,2 -2,2 -2.30178,0 -2.40756,-0.36994 -0.90736,-3.1731 1.61512,-3.01788 -0.0782,-3.85277 -4.59264,-2.26439 -2.2,0.77406 -4.82963,1.41415 -5.84362,1.42243 -1.01399,0.008 -2.06228,0.85122 -2.32953,1.8732 l -0.48592,1.85814 -13.67046,0.10665 -13.67047,0.10664 -3.5,-5.05036 c -1.925,-2.7777 -4.24656,-6.02289 -5.15901,-7.21153 l -1.65902,-2.16117 -1.01613,2.49674 c -0.55888,1.37321 -1.59807,4.63425 -2.30931,7.24675 -0.91962,3.37791 -1.80163,4.75 -3.05341,4.75 h -1.76024 l 0.87442,-2.25 c 5.32769,-13.70884 4.46516,-15.22714 -7.1673,-12.61653 -5.80003,1.30166 -5.8002,1.30612 -0.32235,8.52867 l 4.42765,5.83786 -1.50205,0.33765 c -1.84436,0.4146 -4.74694,-2.12055 -7.4671,-6.52186 -2.44813,-3.96116 -3.66679,-4.18881 -4.3671,-0.81579 -0.28548,1.375 -0.75262,3.625 -1.0381,5 -0.29208,1.40678 -1.21763,2.5 -2.11658,2.5 h -1.59752 l 0.68792,-2.75 c 0.37836,-1.5125 0.93758,-4.27703 1.24272,-6.14339 l 0.5548,-3.3934 -7.19775,0.515 c -6.9616,0.4981 -10.67492,2.04744 -8.54049,3.56343 0.54853,0.3896 2.25517,2.39586 3.79253,4.45836 l 2.7952,3.75 -2.30089,-0.0124 c -1.52176,-0.008 -3.0659,-1.19336 -4.56008,-3.5 -2.81443,-4.34475 -4.02475,-4.41195 -4.42745,-0.24581 -0.21334,2.20705 -0.90277,3.35356 -2.15992,3.59192 l -1.84656,0.35011 0.78679,-2.34192 c 0.43274,-1.28806 0.81369,-3.46692 0.84657,-4.84192 l 0.0598,-2.5 -2,0.28396 c -1.1,0.15618 -4.8125,0.55529 -8.25,0.88691 -7.219,0.69643 -7.02937,0.44077 -3.63131,4.89585 L 124.23738,284 h -2.11022 c -1.16062,0 -2.67227,-0.9 -3.35923,-2 -0.68696,-1.1 -1.56045,-2 -1.94109,-2 -0.38064,0 -0.97771,0.9 -1.32684,2 -0.34913,1.1 -1.3357,2 -2.19239,2 H 111.75 l 0.6,-3 c 0.69054,-3.45271 0.89101,-3.38392 -8.85,-3.03689 -8.279364,0.29495 -8.233424,0.2686 -6.112405,3.50568 L 99.046106,284 h -1.823053 c -1.002679,0 -2.419303,-0.5625 -3.148053,-1.25 l -1.325,-1.25 -0.458333,1.25 c -0.781288,2.13078 -2.954835,1.37373 -2.871068,-1 l 0.0794,-2.25 -7.856282,0.18962 c -8.612932,0.20787 -9.531051,0.53628 -7.692504,2.7516 l 1.236216,1.48955 -4.509808,-0.0905 -4.509808,-0.0905 -0.490288,-1.87486 L 65.187239,280 H 57.09362 c -8.023064,0 -9.21108,0.48254 -6.89362,2.8 l 1.2,1.2 h -4.583369 -4.583368 l -0.523012,-2 -0.523012,-2 h -7.710251 -7.710251 l 0.487352,1.86364 0.487352,1.86363 h -3.789749 -3.789749 l -0.462128,-1.76718 -0.462128,-1.76718 -7.663809,-0.71815 c -8.5642512,-0.80254 -9.71492896,-0.39309 -7.0794263,2.51911 L 5.3099751,284 H 2.6549876 0 Z M 211.79031,280.30769 c 2.11753,-0.88054 3.03566,-1.80298 2.57586,-2.58795 -6.84039,-11.67803 -9.88351,-14.38042 -10.66372,-9.46974 -0.4666,2.9368 -1.17787,5.67112 -3.25989,12.5318 l -0.69245,2.28179 4.37494,-0.69384 c 2.40622,-0.38162 5.85559,-1.30955 7.66526,-2.06206 z M 269.71887,276.75 c 1.15437,-3.4375 2.39057,-7.66678 2.74713,-9.3984 l 0.64828,-3.14841 -6.05714,2.09368 c -6.95496,2.40402 -7.05239,2.72134 -3.30714,10.77142 3.40247,7.31331 3.40612,7.31311 5.96887,-0.31829 z m -70.88257,-0.5 c 0.70011,-2.6125 1.75455,-6.38954 2.3432,-8.39342 1.3031,-4.43603 0.47839,-6.27904 -2.17445,-4.85928 -1.03046,0.55148 -3.00698,1.0027 -4.39226,1.0027 -8.12754,0 -8.63653,2.29706 -2.46005,11.10224 4.98854,7.11165 5.08107,7.12754 6.68356,1.14776 z M 40.833333,277.21372 C 36.842261,267.79944 25.297562,258.58091 24.598394,264.25 c -1.582972,12.83528 -1.778832,12.46806 6.936194,13.00458 3.280977,0.20199 6.790412,0.45234 7.798745,0.55634 1.008334,0.10399 1.683334,-0.16475 1.5,-0.5972 z m 23.026964,-0.79691 c 0.198163,-0.16724 -2.472278,-3.81694 -5.934315,-8.11044 -3.462036,-4.2935 -6.44417,-8.00137 -6.626963,-8.2397 -1.528125,-1.99243 -4.886106,13.23983 -3.636583,16.49603 l 0.535338,1.39507 7.651113,-0.61844 c 4.208112,-0.34014 7.813247,-0.75528 8.01141,-0.92252 z M 228.5,276 c 7.38454,-1.89413 7.54195,-2.18551 4,-7.40486 -1.375,-2.02618 -2.5,-3.90481 -2.5,-4.17473 0,-0.26993 -0.75923,-1.64951 -1.68718,-3.06574 l -1.68718,-2.57497 -0.92579,2.36015 c -4.15925,10.60335 -4.91153,17.59159 -1.75208,16.276 C 224.80149,277.06035 226.85,276.42322 228.5,276 Z m 68.76414,-2.81416 c 1.87759,-1.61925 1.73532,-2.89636 -1.05116,-9.43584 -1.62472,-3.813 -2.99336,-4.75651 -3.62645,-2.5 -0.19289,0.6875 -0.90063,3.275 -1.57276,5.75 -0.67213,2.475 -1.6309,5.54622 -2.13061,6.82494 -1.7462,4.46836 2.86649,4.11662 8.38098,-0.6391 z M 88,275.38766 c 0,-0.33679 -3.032284,-4.20559 -6.738408,-8.59734 l -6.738408,-7.985 -1.216488,2.84734 C 72.637627,263.2187 72.06302,266.075 72.029791,268 c -0.03323,1.925 -0.473833,4.15351 -0.979121,4.95225 -0.505287,0.79874 -0.696839,1.81124 -0.42567,2.25 0.571029,0.92395 17.375,1.10326 17.375,0.18541 z m 17.29178,-0.99213 c 6.91778,-0.81305 6.92133,-0.0515 -0.0418,-8.94895 -6.414247,-8.19614 -7.389273,-8.52277 -8.56912,-2.87063 -0.450517,2.15823 -1.246161,5.32852 -1.768099,7.0451 -1.281058,4.21321 -0.245261,6.67921 2.514535,5.98655 1.185935,-0.29765 4.724944,-0.84308 7.864464,-1.21207 z M 220.79676,267 c 0.5715,-1.925 1.33583,-4.95821 1.69853,-6.74047 l 0.65944,-3.24048 -3.32737,0.63133 c -1.83005,0.34723 -4.08528,1.01794 -5.01162,1.49047 -0.92634,0.47253 -2.58728,0.85915 -3.69098,0.85915 -3.58364,0 -3.27531,1.79756 1.55407,9.06028 l 4.74769,7.13986 1.16557,-2.85007 c 0.64107,-1.56754 1.63317,-4.42507 2.20467,-6.35007 z M 286,273.48643 c 0,-0.83246 0.39476,-2.29496 0.87724,-3.25 C 288.34719,267.3268 290,261.48317 290,259.19571 v -2.1623 l -4.71624,1.85256 c -6.67681,2.62267 -7.09231,3.76207 -3.8148,10.46106 2.69774,5.51399 4.53104,7.18882 4.53104,4.1394 z M 21.789159,261.5 21.5,256.5 13.248016,256 c -4.5385918,-0.275 -8.2483943,-0.275 -8.244006,0 0.00439,0.275 3.2459619,4.48223 7.203497,9.34939 l 7.195518,8.84939 1.337647,-3.84939 C 21.476378,268.23223 21.948197,264.25 21.789159,261.5 Z m 23.231489,7.25 c 0.640244,-2.8875 1.010016,-6.825 0.821716,-8.75 L 45.5,256.5 37.152662,256.20798 C 27.380578,255.86613 27.434819,255.40821 36,265.9392 c 7.732836,9.50761 7.548502,9.45018 9.020648,2.8108 z m 23.881825,-0.25 c 0.687629,-2.2 1.103375,-5.8 0.923881,-8 L 69.5,256.5 61.152662,256.20798 c -9.77342,-0.3419 -9.720331,-0.78794 -1.152662,9.68444 7.007599,8.56548 7.037539,8.57425 8.902473,2.60758 z M 130.25,272.02386 c 4.8624,-0.0309 4.75606,-0.6676 -1.5,-8.98063 -5.54593,-7.3694 -7.42131,-8.46962 -8.17027,-4.79323 -0.25211,1.2375 -0.71068,3.4875 -1.01905,5 -0.30838,1.5125 -0.8367,3.86749 -1.17407,5.23332 -0.33736,1.36583 -0.3671,3.12514 -0.0661,3.90959 l 0.54731,1.42627 3.81608,-0.88573 c 2.09885,-0.48716 5.50358,-0.89647 7.56608,-0.90959 z M 92.399618,269.25 c 2.583254,-15.66419 2.817615,-15.24561 -7.734056,-13.8134 l -7.834437,1.0634 6.817065,8.25 c 7.824918,9.4697 7.923492,9.52039 8.751428,4.5 z m 154.998282,0.98505 c 7.11012,-2.55042 7.40244,-3.63697 2.97715,-11.06579 l -3.77117,-6.33074 -0.91491,2.33074 c -2.11417,5.38586 -4.56875,15.61763 -3.9057,16.28068 0.67216,0.67216 -0.1301,0.84575 5.61463,-1.21489 z m -131.15845,-4.44541 c 1.48213,-6.452 1.50302,-13.33736 0.0396,-13.04932 -0.67152,0.13217 -4.38402,0.53429 -8.25,0.8936 -8.42464,0.78299 -8.312254,0.0436 -1.33086,8.75549 8.09514,10.10169 8.0089,10.07095 9.54127,3.40023 z m 36.86133,3.0619 c 1.86957,-0.63165 3.55833,-1.27826 3.7528,-1.43691 0.76871,-0.62712 -11.09398,-15.38409 -11.94434,-14.85854 -0.50008,0.30907 -0.90924,1.68997 -0.90924,3.06867 0,1.3787 -0.3883,3.26464 -0.8629,4.19098 -0.47459,0.92634 -1.15491,3.59676 -1.51182,5.93426 l -0.64892,4.25 h 4.3626 c 2.39943,0 5.89224,-0.51681 7.76182,-1.14846 z m 87.09887,-5.76802 c 3.46231,-13.57571 3.64981,-12.7168 -2.32203,-10.63712 -2.40769,0.83847 -5.17924,1.53104 -6.159,1.53905 -3.37877,0.0276 -2.96501,2.99694 1.33788,9.60128 l 4.27825,6.5665 0.97548,-1.7431 c 0.53652,-0.9587 1.38676,-3.35568 1.88942,-5.32661 z M 138.76077,264.25 C 142.74494,250.42742 142.70134,250 137.307,250 c -2.953,0 -10.87926,1.69843 -12.14595,2.60262 -0.29856,0.21312 4.41605,6.67307 9.56799,13.11007 2.40562,3.00565 2.78328,2.86864 4.03173,-1.46269 z m 165.44858,-3.16648 c 1.2718,-4.93438 2.65177,-11.54812 2.45207,-11.75199 -0.48016,-0.49018 -8.53401,3.81002 -9.64662,5.15064 l -1.30263,1.56957 2.05114,4.22413 c 1.12813,2.32327 2.34816,5.12413 2.71117,6.22413 l 0.66002,2 1.07561,-1.91648 c 0.59158,-1.05407 1.49124,-3.52907 1.99924,-5.5 z m -128.3908,3.7278 c 3.94134,-1.20153 3.82329,-1.76082 -2.08568,-9.88113 -5.8517,-8.04162 -6.7496,-7.2074 -9.40499,8.73805 l -0.5276,3.16824 4.34986,-0.50675 c 2.39242,-0.2787 5.84321,-0.96199 7.66841,-1.51841 z m 92.43145,-2.27417 3.75,-1.63098 -0.0786,-2.20309 C 271.73022,253.34474 264,244.23653 264,249.36961 c 0,1.39496 -0.39245,3.56996 -0.87211,4.83334 -3.54293,9.33177 -3.64273,12.60105 -0.33153,10.86064 0.937,-0.4925 3.39114,-1.6294 5.45364,-2.52644 z M 161.57076,261.25 c 0.33488,-1.5125 0.9929,-4.1 1.46227,-5.75 0.46937,-1.65 0.99145,-4.35 1.16019,-6 l 0.30678,-3 -2.5,0.14327 c -14.64123,0.83904 -15.29102,1.59778 -8.77469,10.24599 5.77479,7.66405 7.42336,8.52548 8.34545,4.36074 z m 97.31741,-3 c 0.72865,-2.6125 1.79679,-6.15581 2.37365,-7.87402 0.57687,-1.71821 0.77438,-3.83926 0.43892,-4.71345 l -0.60992,-1.58943 -5.29541,2.13147 c -7.46553,3.00497 -7.44477,2.94206 -3.3734,10.22236 4.38688,7.84448 4.7576,7.949 6.46616,1.82307 z M 197.25,260.42896 c 4.72116,-0.81553 4.69094,-1.73051 -0.27548,-8.34019 -2.21401,-2.94658 -4.43026,-6.08072 -4.925,-6.96476 -1.267,-2.264 -1.64962,-1.5795 -3.98178,7.1232 -3.00069,11.19742 -3.85724,10.4342 9.18226,8.18175 z m -13.45349,-3.50729 c 0.16308,-1.33192 0.69153,-3.54667 1.17435,-4.92167 0.48281,-1.375 1.16717,-4.24027 1.5208,-6.36726 l 0.64296,-3.86727 -3.81731,0.60704 c -2.09952,0.33387 -5.72981,0.89516 -8.06731,1.24732 -5.35513,0.80677 -5.33186,1.03969 0.94446,9.45361 5.3474,7.16863 7.08764,8.04956 7.60205,3.84823 z m 27.40644,0.18247 c 1.26338,-0.49272 4.20955,-1.46475 6.54705,-2.16006 2.3375,-0.69531 4.25,-1.65732 4.25,-2.13779 0,-1.16475 -8.32211,-13.6816 -9.14301,-13.75152 -1.22676,-0.10449 -3.44134,7.302 -4.54346,15.19523 -0.57071,4.08739 -0.48637,4.17071 2.88942,2.85414 z m 73.23539,-1.07771 c 5.94923,-2.55014 6.34672,-3.90153 3.09965,-10.5383 -3.00017,-6.13214 -4.22153,-6.7894 -5.08815,-2.73813 -0.32354,1.5125 -1.00711,3.78367 -1.51905,5.04705 -0.51193,1.26338 -0.93079,3.37432 -0.93079,4.69099 0,1.31666 -0.45734,2.67658 -1.01631,3.02204 -0.88339,0.54597 -0.49894,2.48992 0.49242,2.48992 0.19694,0 2.42995,-0.88811 4.96223,-1.97357 z M 276.94408,251.75 c 0.69531,-2.3375 1.66734,-5.28367 2.16006,-6.54705 C 279.59686,243.93957 280,241.52892 280,239.84596 v -3.05994 l -1.75,0.74205 c -0.9625,0.40813 -3.27386,1.29685 -5.13635,1.97495 -5.19987,1.89315 -5.58506,3.60946 -2.12651,9.47517 1.65707,2.8104 3.01286,5.54002 3.01286,6.06582 0,2.52593 1.81792,0.49193 2.94408,-3.29401 z m -70.96831,-1.5 c 3.29378,-13.75128 3.18982,-15.47936 -0.80267,-13.34264 -1.12289,0.60095 -2.76065,1.09264 -3.63948,1.09264 -0.87882,0 -3.14781,0.64761 -5.0422,1.43914 l -3.44435,1.43914 4.72647,7.02343 c 5.60377,8.32711 6.6953,8.63962 8.20223,2.34829 z m -161.15789,2.80288 c 0.174834,-0.0291 -3.172028,-4.16631 -7.43747,-9.19384 l -7.755349,-9.14095 -0.742245,1.89095 C 28.474581,237.64907 28.077314,240.3 28,242.5 c -0.07731,2.2 -0.505185,4.9 -0.950825,6 -0.524959,1.29579 -0.326181,2.55365 0.564539,3.57239 l 1.374795,1.57239 7.755745,-0.26951 c 4.26566,-0.14823 7.898792,-0.2933 8.073626,-0.32239 z m 23.00674,0.11021 1.32462,-0.87336 -5.810623,-6.89486 c -3.195843,-3.79218 -6.541186,-7.69935 -7.434096,-8.6826 l -1.623473,-1.78772 -1.084663,4.28772 c -1.580779,6.24891 -2.106904,12.47768 -1.135681,13.44529 1.167869,1.16352 14.135236,1.57937 15.763916,0.50553 z M 19.34268,252.25 C 19.846168,251.43037 5.9682494,234.11648 4.75,234.04439 4.3375,234.01997 4,235.91547 4,238.2566 c 0,2.34113 -0.4097194,5.68521 -0.9104874,7.43129 -1.5481485,5.39808 0.5739449,6.65225 12.1014704,7.15207 2.030041,0.088 3.898304,-0.17746 4.151697,-0.58996 z M 93,251.38901 C 93,250.49058 79.806322,235 79.041106,235 c -1.29935,0 -4.036183,15.60302 -2.931702,16.714 C 76.912629,252.52195 93,252.21241 93,251.38901 Z m 19.75,-1.36515 c 5.45142,-0.0306 5.43537,-0.0951 -2.30829,-9.27386 -7.48483,-8.87199 -8.02009,-9.11494 -8.81283,-4 -1.6086,10.37907 -1.797829,12.36734 -1.30038,13.66367 l 0.53934,1.40551 3.81608,-0.88573 c 2.09885,-0.48716 5.72858,-0.89647 8.06608,-0.90959 z M 235.5,250 c 7.89173,-2.02422 8.06553,-2.8044 2.46274,-11.05487 C 233.69866,232.666 232,231.5931 232,235.179 c 0,1.19845 -0.48793,3.78595 -1.08428,5.75 -0.59636,1.96405 -1.48216,4.87444 -1.96845,6.46754 -1.05891,3.46901 -0.34561,4.98876 1.90388,4.05638 C 231.75802,251.07704 233.85,250.42322 235.5,250 Z M 24.956906,243.22839 c 0.702741,-3.72438 1.107002,-7.66188 0.898358,-8.75 L 25.475912,232.5 17.510749,231.77721 c -10.4864121,-0.95158 -10.5407424,-0.7169 -2.182714,9.4284 8.633524,10.47972 8.056051,10.35841 9.628871,2.02278 z M 48.811454,245.75 C 52.02355,233.00807 51.436196,232 40.8,232 c -9.325548,0 -9.339599,0.0592 -2.063873,8.69309 3.154869,3.7438 6.192369,7.35229 6.75,8.01887 1.660187,1.98456 2.199456,1.50421 3.325327,-2.96196 z m 25.230208,-4.00689 C 74.555673,238.8594 75.094077,235.6 75.238114,234.5 l 0.261886,-2 -9.25,-0.28753 c -11.067639,-0.34402 -10.908772,-1.06328 -2.080703,9.42021 l 7.169297,8.51367 0.884251,-1.58007 c 0.486338,-0.86904 1.304806,-3.93947 1.818817,-6.82317 z M 226,248.321 c 0,-0.92345 0.41951,-3.06095 0.93224,-4.75 3.69232,-12.16331 3.7406,-14.41795 0.2714,-12.67328 C 224.56416,232.22513 218.54281,234 216.679,234 c -2.39026,0 -2.07894,1.89708 1.07528,6.55246 C 224.18774,250.04772 226,251.75511 226,248.321 Z m 75.86048,-0.48249 c 5.35435,-2.858 5.65307,-4.08951 2.53691,-10.45871 -2.96688,-6.06409 -3.92585,-6.59812 -4.72236,-2.6298 -0.73647,3.66916 -2.35515,10.21629 -3.21406,13 -0.87279,2.82869 0.23195,2.8468 5.39951,0.0885 z M 137.75,247.44484 c 3.3356,-0.71596 2.85845,-1.93084 -3.92715,-9.99911 -6.76484,-8.04359 -7.34331,-8.2347 -8.17885,-2.702 -0.31199,2.06595 -0.85851,5.4416 -1.21447,7.50144 -1.07762,6.23574 2.31811,7.56126 13.32047,5.19967 z m -40.578745,-2.52655 c 1.873227,-6.74856 2.924865,-12.95375 2.352351,-13.8801 -0.917278,-1.48418 -13.782613,-1.3005 -15.871045,0.2266 l -1.729698,1.26478 6.288569,7.69157 c 6.567745,8.03304 7.84762,8.70401 8.959823,4.69715 z M 294,246.321 c 0,-0.92345 0.41951,-3.06095 0.93224,-4.75 2.66554,-8.78088 3.34467,-11.62742 2.884,-12.0881 -0.70998,-0.70997 -9.30933,3.20139 -10.68638,4.86063 l -1.13436,1.36682 3.16913,6.14482 C 292.31797,247.96937 294,249.52285 294,246.321 Z m -173.34823,-1.56656 c 0.76219,-1.23326 2.23997,-8.93076 2.64059,-13.75444 l 0.20764,-2.5 -7.8567,0.1567 c -10.51246,0.20967 -10.66494,0.64151 -3.38255,9.57933 6.56685,8.05961 7.15576,8.5171 8.39102,6.51841 z m 37.62686,-0.67038 c 6.02549,-0.73645 5.99661,-1.06091 -0.87538,-9.83406 -6.55439,-8.36768 -6.93122,-8.53791 -7.74757,-3.5 -0.33421,2.0625 -1.06419,5.93738 -1.62217,8.61085 -1.22248,5.85723 -0.66919,7.04272 2.82558,6.05423 1.4525,-0.41083 4.79129,-1.00979 7.41954,-1.33102 z m 97.94519,-1.14929 c 6.25495,-1.79544 6.36988,-2.60844 1.46235,-10.34393 -4.85658,-7.65517 -5.31402,-7.87358 -5.94992,-2.84084 -0.2606,2.0625 -1.16928,6.21789 -2.0193,9.23421 -1.5984,5.67199 -1.38789,7.7734 0.62208,6.20971 0.63853,-0.49676 3.28669,-1.51338 5.88479,-2.25915 z M 144.93318,238.25 c 0.6562,-2.6125 1.69117,-6.45101 2.29993,-8.53003 1.41878,-4.84539 0.34342,-6.0325 -4.26684,-4.7103 -1.89918,0.54468 -5.34198,0.99033 -7.65065,0.99033 -6.14292,0 -6.03719,1.10372 0.90535,9.45106 7.41684,8.91762 7.19336,8.84582 8.71221,2.79894 z m 101.90312,0 c 0.70011,-2.6125 1.77484,-6.45101 2.38829,-8.53003 1.50135,-5.08823 0.33646,-6.02386 -5.14757,-4.13446 -9.5093,3.27622 -9.4551,3.12289 -3.99428,11.30054 4.90908,7.3514 5.13669,7.39737 6.75356,1.36395 z m -67.03742,1.81456 c 6.85029,-1.21477 7.03653,-2.1739 1.69534,-8.73077 -2.61025,-3.20436 -4.96242,-6.39033 -5.22705,-7.07994 -0.91691,-2.38944 -2.19218,-1.23376 -3.3062,2.99615 -0.61562,2.3375 -1.59467,5.90404 -2.17566,7.92565 -0.58099,2.0216 -0.7649,4.43516 -0.40868,5.36345 l 0.64767,1.68781 2.23785,-0.70001 c 1.23082,-0.385 4.17235,-1.04305 6.53673,-1.46234 z m -11.51239,-5.64669 c 2.95835,-14.60267 2.88418,-15.19365 -1.68875,-13.45503 -1.50037,0.57044 -4.18764,1.03716 -5.97171,1.03716 -1.78407,0 -4.06449,0.60012 -5.06758,1.33361 l -1.82382,1.3336 1.58774,1.9164 c 0.87325,1.05401 3.4618,4.29844 5.75234,7.20984 4.75151,6.03942 6.09126,6.15542 7.21178,0.62442 z M 271.5,237 c 0.33992,-0.55 1.37898,-1.01001 2.30902,-1.02224 0.93004,-0.0122 2.81598,-0.8923 4.19098,-1.95571 l 2.5,-1.93347 -1.34404,-2.1813 c -0.73921,-1.19971 -2.24412,-3.80714 -3.34423,-5.79429 -3.02094,-5.45676 -3.37057,-5.52306 -4.70952,-0.89302 -0.68075,2.35402 -1.65724,5.66198 -2.16997,7.35103 -1.757,5.78794 0.0962,10.42799 2.56776,6.429 z m -68,-2.51225 c 5.02138,-1.61424 5.02152,-1.61287 -1,-9.71731 -5.15278,-6.93519 -6.5,-7.99046 -6.5,-5.09144 0,0.92345 -0.41853,3.06095 -0.93007,4.75 -4.11709,13.59418 -3.7882,13.98661 8.43007,10.05875 z M 265.51563,233.25 c 0.30456,-1.5125 0.94544,-4.1 1.4242,-5.75 0.47875,-1.65 1.16587,-4.72663 1.52694,-6.83695 l 0.65648,-3.83694 -2.31163,0.64979 c -1.27139,0.35739 -3.21162,1.03071 -4.31162,1.49627 -1.1,0.46556 -2.79771,1.10207 -3.77268,1.41447 -3.02158,0.96816 -3.016,3.33084 0.0184,7.80836 1.60464,2.36775 3.20416,5.0925 3.5545,6.055 0.95347,2.61954 2.58897,2.11089 3.21537,-1 z m -74.63392,-4.5 c 0.71184,-3.4375 1.68836,-7.50788 2.17004,-9.04529 l 0.87579,-2.79529 -1.48045,-0.5681 c -0.81425,-0.31245 -2.71044,-0.26329 -4.21377,0.10926 -1.50333,0.37254 -4.53332,0.99599 -6.73332,1.38545 -5.25562,0.93037 -5.055,2.29669 1.54686,10.53512 6.4692,8.07288 6.24381,8.06198 7.83485,0.37885 z M 225,228.45692 c 4.49534,-1.58546 4.44346,-1.95483 -1.41948,-10.10478 l -4.91948,-6.83847 -1.39254,5.49317 c -0.76589,3.02124 -1.87083,7.1327 -2.4554,9.13658 -1.81081,6.20731 -1.22847,6.33956 10.1869,2.3135 z m -201,0.51297 c 0,-0.56656 -2.363824,-3.82906 -5.252942,-7.25 C 15.85794,218.29895 12.530676,214.2625 11.353138,212.75 10.1756,211.2375 9.0009133,210 8.7427232,210 7.8690877,210 5.8208859,221.52421 6.1616282,224.52253 L 6.5,227.5 l 7,0.30093 c 3.85,0.1655 7.4275,0.728 7.95,1.25 1.251528,1.2503 2.55,1.20904 2.55,-0.081 z m 267.20748,-0.41211 c 6.635,-2.77229 6.90478,-4.52662 2.03577,-13.23824 l -2.62989,-4.70538 -0.89761,2.94292 c -0.49368,1.61861 -1.28251,4.74292 -1.75294,6.94292 -0.47043,2.2 -1.15697,5.2375 -1.52565,6.75 -0.77009,3.15934 -0.10047,3.34292 4.77032,1.30778 z M 48,228.23167 C 48,226.55254 34.439777,211 32.975749,211 32.439087,211 32,212.91547 32,215.2566 c 0,2.34113 -0.440806,5.7936 -0.979568,7.67216 C 29.537037,228.10105 30.88474,229 40.122445,229 44.4551,229 48,228.65425 48,228.23167 Z m 24.723625,-0.62196 c 0.312841,-0.31284 -1.194867,-2.49051 -3.350462,-4.83926 -2.155595,-2.34875 -5.199801,-5.95795 -6.764902,-8.02045 -4.253984,-5.60593 -7.636778,1.01579 -6.714224,13.14289 L 56,229.28579 l 8.077412,-0.55364 c 4.442576,-0.3045 8.333372,-0.8096 8.646213,-1.12244 z M 212.33509,225.75 c 1.38225,-8.11032 2.33705,-12.4105 2.9903,-13.46747 1.2952,-2.09568 -1.03189,-2.27564 -7.80687,-0.60375 -7.43556,1.83491 -8.75161,3.34451 -5.7731,6.6221 1.09915,1.20952 3.24088,4.11162 4.7594,6.44912 3.30491,5.08732 5.08172,5.39208 5.83027,1 z M 97.504128,226.99332 C 98.202581,225.8632 85.213744,210.5 83.559828,210.5 c -0.582905,0 -1.180329,1.35 -1.327609,3 -0.147279,1.65 -0.763901,4.89692 -1.37027,7.21539 -0.606369,2.31846 -0.837491,4.90596 -0.513604,5.75 L 80.93723,228 h 7.972368 c 4.384803,0 8.252341,-0.45301 8.59453,-1.00668 z M 284,225.5651 c 0,-1.3392 0.38867,-3.4767 0.8637,-4.75 0.47504,-1.27331 1.17705,-4.44884 1.56002,-7.05675 l 0.69632,-4.74164 -1.81002,0.59984 c -10.99117,3.6425 -11.40381,4.36585 -7.06552,12.38565 3.38414,6.25596 5.7555,7.72393 5.7555,3.5629 z M 28.318281,222.25 c 0.290593,-2.0625 0.839773,-5.82886 1.220399,-8.36968 0.83585,-5.57962 0.984111,-5.47793 -9.28868,-6.37115 -10.032216,-0.8723 -10.013658,-1.04196 -1.071138,9.79286 8.183099,9.91471 8.421455,10.04375 9.139419,4.94797 z m 24.525352,0.5 c 0.549306,-1.7875 1.291585,-5.8375 1.649509,-9 L 55.143913,208 h -9.636192 -9.636192 l 6.314235,7.60079 c 3.47283,4.18043 6.761934,8.23043 7.309121,9 1.509681,2.12322 2.253921,1.7119 3.348748,-1.85079 z m 68.241397,1.56497 1.14942,-1.14942 -2.64163,-2.83277 c -1.45289,-1.55803 -4.31814,-4.95223 -6.36722,-7.54267 -4.62262,-5.84391 -4.70255,-5.84443 -6.15115,-0.0401 -0.65201,2.6125 -1.59116,6.28675 -2.087,8.165 -0.49584,1.87825 -0.64063,3.83715 -0.32175,4.3531 0.79835,1.29177 14.99875,0.46745 16.41933,-0.95313 z M 78.372799,220.25 c 0.344991,-2.6125 0.895272,-6.38435 1.222846,-8.38189 0.814178,-4.96484 -1.964028,-5.85043 -13.345645,-4.25412 -5.325652,0.74695 -5.474401,0.15978 2.406266,9.49835 7.773553,9.21164 8.867777,9.56499 9.716533,3.13766 z M 242.5,223.02241 c 0.55,-0.41065 2.2375,-1.04226 3.75,-1.40357 3.58627,-0.85672 3.46878,-2.52309 -0.54938,-7.79224 -1.81466,-2.37963 -3.6149,-5.15152 -4.00053,-6.15976 -0.94669,-2.47514 -3.13506,-1.58592 -3.47363,1.41149 -0.15045,1.33192 -0.68756,4.22167 -1.19358,6.42167 -0.50602,2.2 -1.18899,5.27733 -1.51772,6.83852 l -0.5977,2.83852 3.29127,-0.70399 c 1.8102,-0.3872 3.74127,-1.03998 4.29127,-1.45064 z m -140.04752,-3.74813 c 2.8541,-14.91896 3.3252,-14.07519 -7.45248,-13.34788 -10.197538,0.68815 -10.076035,-0.0795 -1.560451,9.85858 7.597251,8.86632 7.957581,9.00582 9.012931,3.4893 z m 39.29752,3.03073 c 5.44595,-0.72414 5.40411,-0.94416 -1.81877,-9.56318 -7.09149,-8.46222 -7.52751,-8.72997 -8.19968,-5.03521 -0.2795,1.53636 -1.03211,5.38555 -1.67247,8.55376 -1.43742,7.11175 -0.88712,8.16174 3.81805,7.2849 1.99258,-0.37134 5.53537,-0.92946 7.87287,-1.24027 z M 232.5273,221.25 c 0.72898,-1.72098 2.04778,-7.60543 3.13761,-14 0.36343,-2.13241 0.15105,-3.25 -0.61761,-3.25 -2.1056,0 -11.51686,3.25101 -12.79044,4.41831 l -1.24313,1.13939 4.48262,5.97115 c 2.46545,3.28413 4.48736,6.30865 4.49314,6.72115 0.0202,1.43876 1.80223,0.73655 2.53781,-1 z M 126.75652,217.01575 C 127.44043,214.82441 128,212.09483 128,210.95001 c 0,-1.14482 0.49393,-3.00441 1.09762,-4.13242 l 1.09762,-2.05092 -1.46653,-1.46653 -1.46654,-1.46654 -3.88108,1.07762 c -2.1346,0.5927 -5.79359,1.08014 -8.13109,1.0832 -4.86067,0.006 -5.13166,0.55067 -1.99936,4.0158 1.23785,1.36938 4.20475,4.85228 6.59311,7.73978 5.2077,6.29603 5.33552,6.31943 6.91277,1.26575 z m 38.63912,1.25227 c 4.94474,-0.97485 4.93855,-1.00448 -2.04502,-9.79652 -7.09728,-8.9352 -6.64874,-8.86865 -8.23233,-1.2215 -0.71184,3.4375 -1.66792,7.44924 -2.12462,8.91499 -1.34242,4.30842 0.0327,4.5416 12.40197,2.10303 z M 302.24897,212 c 2.42144,-12.6403 2.7199,-11.94691 -3.85349,-8.95239 -5.91907,2.69645 -6.11902,3.64408 -2.31229,10.95847 l 3.22445,6.19558 1.03964,-1.85083 c 0.57181,-1.01796 1.42757,-3.87583 1.90169,-6.35083 z m -151.9059,3.25 c 3.58094,-17.27457 3.92197,-16.27082 -5.18766,-15.26875 -10.38007,1.14183 -10.51738,1.60881 -3.07503,10.45796 7.12448,8.47122 7.46303,8.66833 8.26269,4.81079 z M 260,216.70522 c 9.25146,-3.34286 9.39317,-3.76342 3.96274,-11.76009 C 259.3605,198.16803 258,197.57608 258,202.35078 c 0,1.84292 -0.41145,4.65542 -0.91434,6.25 -1.42852,4.52962 -2.10885,9.40074 -1.31066,9.38416 0.39875,-0.008 2.3,-0.58415 4.225,-1.27972 z m -74.26601,-2.39725 c 2.3287,-0.31046 4.73097,-1.16328 5.33838,-1.89517 l 1.10439,-1.33071 -4.59353,-5.63903 c -2.52643,-3.10146 -4.98195,-6.33311 -5.4567,-7.18144 -1.2897,-2.30457 -2.97382,-0.67086 -3.63217,3.52346 -0.32071,2.04321 -1.07412,5.36896 -1.67425,7.39057 -1.43928,4.84836 -0.51223,7.26807 2.44204,6.37402 1.23082,-0.37248 4.14315,-0.93125 6.47184,-1.2417 z m 66.79331,-0.058 c 0.4077,-0.9625 1.10666,-3.55 1.55325,-5.75 0.44658,-2.2 1.11218,-5.22999 1.4791,-6.73332 0.36692,-1.50333 0.40132,-3.42602 0.0764,-4.27265 l -0.59069,-1.53932 -2.0227,1.02264 c -1.11248,0.56246 -2.91658,1.47265 -4.00912,2.02265 -1.09254,0.55 -2.61244,1 -3.37756,1 -0.76511,0 -1.92232,0.64006 -2.57156,1.42234 l -1.18044,1.42235 4.30799,6.55685 c 4.65363,7.0829 5.20884,7.50781 6.3353,4.84846 z m -78.25521,-5.76077 c 0.44139,-2.19407 1.07241,-6.42354 1.40228,-9.39882 l 0.59976,-5.40958 -1.88707,0.79658 c -1.03788,0.43812 -4.30878,1.15415 -7.26866,1.59119 -7.8426,1.15798 -8.12787,1.9549 -3.02415,8.44814 2.42316,3.08288 4.85575,6.26237 5.40575,7.06553 1.72459,2.51843 3.93091,1.0884 4.77209,-3.09304 z m 35.56492,-0.16235 c 3.76883,-0.69662 5.0102,-2.61197 3.01012,-4.64438 -0.74092,-0.75289 -3.14713,-3.89286 -5.34713,-6.9777 -4.97623,-6.9777 -4.82111,-6.99095 -6.38171,0.5452 -0.71184,3.4375 -1.69928,7.53919 -2.1943,9.11487 -1.23734,3.93852 -0.54171,4.57629 3.82068,3.50286 2.06543,-0.50822 5.25699,-1.20161 7.09234,-1.54085 z M 278.5,209 c 0.33992,-0.55 1.34354,-1 2.23028,-1 5.65496,0 6.2864,-4.49953 1.61813,-11.53046 -4.28063,-6.44709 -4.01538,-6.52243 -5.75914,1.63574 -0.75176,3.5171 -1.69067,7.63222 -2.08646,9.14472 l -0.71963,2.75 h 2.04939 c 1.12717,0 2.32751,-0.45 2.66743,-1 z M 196,206.43426 c 0,-1.41116 0.3897,-3.32366 0.866,-4.25 0.4763,-0.92634 1.17335,-4.09613 1.549,-7.04397 l 0.68299,-5.35971 -4.04899,0.60971 c -14.60969,2.19997 -14.24125,1.5394 -6.39194,11.45992 6.13882,7.75868 7.34294,8.51039 7.34294,4.58405 z m 76,-0.5 c 0,-1.68616 0.38794,-3.82366 0.86208,-4.75 0.47415,-0.92634 1.13085,-4.07128 1.45934,-6.98874 l 0.59726,-5.30448 -2.20934,0.63515 C 268.33621,190.78339 262,194.03076 262,195.01482 c 0,1.37964 8.31902,13.93854 9.25,13.96437 0.4125,0.0115 0.75,-1.35877 0.75,-3.04493 z M 48.344038,198.32244 C 45.679817,195.2351 42.342364,191.34863 40.927476,189.68585 37.773917,185.97976 36,186.78039 36,191.90979 c 0,2.08547 -0.497298,5.21831 -1.105107,6.96188 l -1.105108,3.17011 1.195196,1.44012 c 1.299784,1.56615 17.228892,2.66856 17.859057,1.23599 0.189221,-0.43017 -1.835779,-3.30812 -4.5,-6.39545 z M 230.71387,201.887 c 4.88179,-1.45982 4.80854,-2.29652 -0.86717,-9.90526 l -5.25498,-7.04473 -1.28068,4.28149 c -0.70437,2.35483 -1.28751,5.32358 -1.29586,6.59724 -0.008,1.27366 -0.49983,3.22132 -1.09218,4.32814 -0.59236,1.10682 -0.84094,2.62759 -0.55241,3.37948 l 0.5246,1.36709 3.30241,-1.0212 c 1.81632,-0.56165 4.74864,-1.45367 6.51627,-1.98225 z M 23.843118,198.89428 C 21.454403,196.08614 18.15,192.05297 16.5,189.9317 12.137302,184.32291 10.019085,186.98164 10.005577,198.08333 9.9983238,204.04421 9.9254346,204 19.759785,204 h 8.426452 z m 53.525855,4.31773 c 0.475364,-0.76916 -12.713698,-16.42024 -14.333236,-17.00884 -0.790084,-0.28715 -1.130936,1.3573 -2.600631,12.54683 L 59.745541,204 h 8.568213 c 4.712516,0 8.787365,-0.3546 9.055219,-0.78799 z m 18.688398,-0.35856 c 8.358899,-1.38044 8.331969,-0.75885 0.405113,-9.35345 -3.550881,-3.85 -6.457572,-7.3375 -6.459315,-7.75 -0.02239,-5.29982 -3.529346,3.68361 -4.54408,11.64013 l -0.623662,4.89012 1.332287,0.84456 c 1.708378,1.08298 1.684944,1.08362 9.889657,-0.27136 z M 218.33711,199.25 c 0.30095,-2.0625 0.998,-6.43772 1.549,-9.7227 1.19313,-7.11327 1.48422,-6.65225 -3.41418,-5.4073 -2.18456,0.55521 -5.31921,1.33574 -6.96589,1.7345 -4.51112,1.09242 -4.1607,3.40175 1.6086,10.60124 6.1101,7.62476 6.49585,7.774 7.22247,2.79426 z M 32.317683,197.25627 c 0.290922,-2.06595 0.84578,-5.88311 1.233017,-8.48259 l 0.704067,-4.72632 -2.720234,-1.03423 C 28.89144,182.00823 15.002466,181.9972 15.005102,183 c 0.0011,0.42063 11.132338,14.01404 14.448989,17.64504 1.538933,1.68479 2.271166,0.81827 2.863592,-3.38877 z m 25.760488,-3.26104 c 0.56237,-3.492 1.263583,-6.73918 1.55825,-7.21596 0.294667,-0.47679 -0.0081,-1.52217 -0.672776,-2.32307 L 57.755111,183 h -8.484545 -8.484544 l 0.585601,1.52605 c 1.086486,2.83134 14.12136,17.31542 14.906217,16.56349 0.427812,-0.40987 1.237961,-3.60231 1.800331,-7.09431 z m 63.139199,6.19774 c 7.3632,-0.81216 7.37493,-0.60467 -0.56088,-9.91855 -7.16473,-8.4089 -8.25919,-8.77631 -9.00948,-3.02442 -0.30491,2.3375 -0.8492,5.93533 -1.20954,7.99517 -0.8642,4.94017 -0.006,7.07006 2.52498,6.26675 1.08476,-0.34429 4.79948,-0.93782 8.25492,-1.31895 z M 298.0315,199.75 c 6.15448,-3.28103 6.16293,-4.78688 0.0818,-14.57839 l -1.44607,-2.3284 -0.93159,1.66465 c -0.51237,0.91556 -1.31207,3.98834 -1.77712,6.8284 -0.46505,2.84006 -1.14843,6.40124 -1.51862,7.91374 -0.82379,3.36579 0.0667,3.44541 5.59158,0.5 z m -215.253085,-4.5 c 0.655033,-3.1625 1.310357,-7.325 1.456277,-9.25 L 84.5,182.5 l -9.25,-0.0779 c -11.107381,-0.0935 -11.055455,-0.35615 -2,10.11682 8.65812,10.01345 8.051646,9.84089 9.528415,2.71104 z m 207.664885,0.5 c 2.8614,-17.20965 3.10105,-16.3239 -3.52343,-13.02278 -6.4136,3.19603 -6.70134,4.05657 -3.32901,9.95592 5.07151,8.87179 5.83077,9.2116 6.85244,3.06686 z m -182.18474,-3.93983 c 0.53839,-2.9206 1.03797,-6.66017 1.11017,-8.31017 l 0.13127,-3 -6,0.10246 c -13.833619,0.23622 -13.908435,0.49329 -3.565516,12.25081 6.121956,6.95927 6.866086,6.86602 8.324076,-1.0431 z m 37.84222,5.10176 c 1.86957,-0.59844 3.98433,-1.26799 4.69946,-1.48789 l 1.30023,-0.39982 -1.80023,-1.94489 c -0.99013,-1.06969 -3.82524,-4.42662 -6.30024,-7.45985 -5.16693,-6.33232 -6.17951,-6.47641 -7.33352,-1.04353 -0.45843,2.15823 -1.30213,5.56359 -1.87488,7.56747 -1.6774,5.8687 2.44362,7.60632 11.30918,4.76851 z m 99.60217,-0.0525 c 10.95659,-4.46768 10.68919,-3.63135 4.14431,-12.96171 -4.99868,-7.12611 -5.4273,-7.20553 -6.19393,-1.14776 -0.33062,2.6125 -0.99105,6.88432 -1.46762,9.49294 -1.11485,6.10233 -0.88059,6.4098 3.51724,4.61653 z M 132.31468,190.9186 c 0.44808,-2.43023 1.04802,-6.46731 1.33321,-8.97129 l 0.51852,-4.55269 -6.8332,0.42921 c -3.75827,0.23606 -7.8678,0.81954 -9.13231,1.29661 l -2.29909,0.86739 6.79909,7.96722 c 7.64081,8.95354 8.46266,9.20689 9.61378,2.96355 z m 106.5248,2.53435 C 239.47777,192.05207 240,189.64422 240,188.10217 c 0,-1.54205 0.49598,-4.2265 1.10219,-5.96546 0.6062,-1.73895 0.85664,-3.80162 0.55653,-4.5837 l -0.54566,-1.42196 -3.30653,1.08402 c -1.81859,0.59621 -4.20653,1.42592 -5.30653,1.8438 -1.1,0.41787 -2.7875,1.01146 -3.75,1.31907 -2.49728,0.79812 -2.27296,1.46478 2.73949,8.14173 2.46922,3.28918 4.49422,6.31783 4.5,6.73033 0.0236,1.68255 1.76484,0.58461 2.84999,-1.79705 z M 171.25,192.39057 c 4.92113,-0.79969 4.77915,-1.47524 -1.9504,-9.27967 -3.13522,-3.63599 -5.84272,-6.8059 -6.01667,-7.04423 -0.86117,-1.17994 -2.43315,2.15277 -3.3051,7.00707 -0.53609,2.98444 -1.265,6.72722 -1.6198,8.31728 l -0.6451,2.89102 4.89353,-0.64105 c 2.69145,-0.35257 6.58104,-0.91527 8.64354,-1.25042 z M 156.43988,187.75 c 0.35747,-2.3375 0.89621,-6.60955 1.1972,-9.49343 l 0.54726,-5.24344 -3.34217,0.53222 c -13.94187,2.22012 -14.93483,2.77467 -11.57589,6.46487 1.24645,1.36938 4.00066,4.62728 6.12046,7.23978 4.77085,5.87972 6.21477,5.98208 7.05314,0.5 z m 30.4441,1.29547 c 1.98881,-0.525 4.74102,-1.19602 6.11602,-1.49116 1.375,-0.29515 3.13753,-0.95104 3.91674,-1.45754 l 1.41674,-0.92091 -4.41674,-5.3225 c -2.42921,-2.92738 -5.07925,-6.11695 -5.88898,-7.08793 -3.27614,-3.92856 -3.71149,-2.93661 -5.69869,12.98457 -0.5836,4.67581 -0.60782,4.65829 4.55491,3.29547 z m 81.71677,-1.19783 c 6.12219,-2.87777 6.22317,-3.66321 1.38267,-10.75455 C 265.31874,170.25934 264,169.59211 264,174.06574 c 0,1.68616 -0.39061,3.82366 -0.86803,4.75 -0.47742,0.92634 -1.09714,3.82176 -1.37716,6.43426 l -0.50914,4.75 h 1.38807 c 0.76343,0 3.44859,-0.96856 5.96701,-2.15236 z m -8.67683,-8.53254 c 0.0418,-1.7517 0.54445,-4.4168 1.11689,-5.92245 1.38236,-3.63586 0.56712,-5.72544 -1.76812,-4.53197 -2.19932,1.12401 -6.1968,2.77344 -8.54537,3.52596 -3.41745,1.09501 -2.96439,3.50776 1.90361,10.13764 l 4.82623,6.57299 1.19534,-3.29863 c 0.65744,-1.81425 1.22958,-4.73185 1.27142,-6.48354 z m -79.70604,1.45867 c 0.47598,-2.90057 1.11471,-6.68312 1.41939,-8.40566 0.69038,-3.90313 -0.15614,-4.44497 -5.16359,-3.30513 -2.18552,0.49749 -5.09868,1.13286 -6.47368,1.41193 -1.375,0.27908 -3.11311,0.90673 -3.86248,1.39478 l -1.36247,0.88737 6.28108,7.65287 c 7.01724,8.5498 7.81325,8.58141 9.16175,0.36384 z m 32.56452,1.64467 c 1.53032,-0.31986 3.76032,-1.33236 4.95555,-2.25 l 2.17316,-1.66844 -4.95556,-5.98195 C 212.23,169.22798 210,166.19048 210,165.76805 c 0,-4.25785 -2.96225,0.96147 -4.10453,7.23195 -0.45086,2.475 -1.12165,6.02236 -1.49063,7.88302 l -0.67089,3.38303 3.13303,-0.63303 c 1.72316,-0.34816 4.3851,-0.89472 5.91542,-1.21458 z M 202.31828,178.25 c 0.29059,-2.0625 0.84403,-5.86659 1.22985,-8.45354 0.38583,-2.58695 0.43551,-5.39672 0.1104,-6.24393 l -0.5911,-1.54038 -2.28371,0.88979 c -1.25605,0.48938 -4.30872,1.46489 -6.78372,2.1678 -6.66532,1.89298 -6.67285,2.10998 -0.33931,9.78477 6.69881,8.11742 7.92457,8.59816 8.65759,3.39549 z m 83.87296,1.5 c 6.39311,-3.0277 6.48368,-3.80673 1.33492,-11.48173 -4.74758,-7.07697 -5.0009,-7.02454 -5.9509,1.23173 -0.31642,2.75 -0.84954,6.6875 -1.18469,8.75 -0.71375,4.39227 -0.45033,4.46039 5.80067,1.5 z M 32,179.45636 c 0,-0.29901 -1.145195,-1.76151 -2.544878,-3.25 -1.399683,-1.4885 -4.882613,-5.49506 -7.739844,-8.90347 l -5.194966,-6.19712 -0.969178,1.69712 C 14.029884,165.46672 13.040142,177.31394 14.218877,178.75 15.229781,179.98159 32,180.64779 32,179.45636 Z m 24.833333,-0.31728 C 56.53815,178.37669 53.399085,174.60909 44.636429,164.5 l -2.600428,-3 -1.002688,1.5 c -0.551478,0.825 -1.009578,3.15821 -1.018,5.1849 -0.0084,2.0267 -0.474986,4.89393 -1.036808,6.37164 -1.693184,4.45341 0.076,5.44346 9.727273,5.44346 4.653489,0 8.310889,-0.38742 8.127555,-0.86092 z M 83,178.8242 c 0,-0.37474 -0.566323,-1.27599 -1.258495,-2.00277 -0.692173,-0.72679 -4.14421,-4.59689 -7.671194,-8.60024 -6.954827,-7.89415 -7.619946,-7.99102 -8.384846,-1.22119 -0.279641,2.475 -0.824295,5.72999 -1.210341,7.23332 -0.386046,1.50333 -0.426317,3.45149 -0.08949,4.32924 l 0.612411,1.59592 9.000978,-0.32647 C 78.94956,179.65245 83,179.19894 83,178.8242 Z m 194.76062,-1.90253 c 0.14334,-1.33192 0.76257,-4.98678 1.37608,-8.12191 0.61351,-3.13513 0.85247,-6.38561 0.53102,-7.22329 l -0.58445,-1.52304 -5.15816,2.38981 c -7.75258,3.59182 -7.76304,3.63121 -2.93402,11.04308 4.39254,6.74193 6.30901,7.71449 6.76953,3.43535 z m -170.25769,0.0736 c 0.58253,-0.94256 -13.251967,-16.99357 -14.647895,-16.99473 -0.629172,-5.3e-4 -1.006127,1.98547 -2.419929,12.74946 L 89.745541,178 h 8.568213 c 4.712516,0 8.847646,-0.45213 9.189176,-1.00473 z M 236.75,174.28854 c 4.40753,-1.87473 3.24517,-4.93749 -5.98877,-15.78018 -1.16878,-1.3724 -2.72679,1.30983 -2.74592,4.72729 -0.008,1.50461 -0.54008,4.69771 -1.18147,7.0958 -0.64139,2.39808 -0.89183,5.07505 -0.55653,5.94882 l 0.60963,1.58868 3.30653,-1.09902 c 1.81859,-0.60446 4.76903,-1.72108 6.55653,-2.48139 z M 36.498901,172.75 c 0.419231,-2.3375 0.815982,-6.5 0.881669,-9.25 l 0.11943,-5 -9.25,-0.28753 c -10.791211,-0.33543 -10.583631,-0.63774 -4.551151,6.62804 11.311543,13.6241 11.728883,13.88198 12.800052,7.90949 z m 25.942117,-1.5 c 0.378773,-3.1625 0.771997,-7.325 0.87383,-9.25 L 63.5,158.5 54.25,158.21247 c -10.296542,-0.32005 -10.536133,-0.11033 -6.169095,5.40003 11.071779,13.97044 13.450115,15.23537 14.360113,7.6375 z m 25.53354,-3.07 c 0.474921,-3.35992 1.163672,-6.59464 1.530557,-7.18828 0.366886,-0.59363 0.189679,-1.65454 -0.393792,-2.35758 l -1.060856,-1.27826 -8.775234,0.44215 c -8.982308,0.45259 -10.446373,0.78844 -8.746273,2.00634 0.534072,0.3826 4.072394,4.20928 7.862938,8.50373 7.73662,8.76512 8.326725,8.75723 9.58266,-0.1281 z m 39.832622,6.67247 c 2.58105,-0.63114 4.85924,-1.28506 5.06264,-1.45315 0.2034,-0.16809 -2.93867,-3.8817 -6.98237,-8.25247 l -7.35218,-7.94685 -1.26764,3.01481 c -0.6972,1.65814 -1.26763,4.28385 -1.26763,5.8349 0,1.55105 -0.45322,4.01215 -1.00715,5.46911 -1.79018,4.70853 2.56179,5.84069 12.81433,3.33365 z m 96.48666,-5.36388 c 2.45781,-15.44508 2.92839,-14.67592 -6.91257,-11.2986 -7.60015,2.6083 -7.6359,2.79471 -1.88127,9.81001 2.475,3.0172 4.5,5.8595 4.5,6.31623 0,3.50798 3.61398,-0.55527 4.29384,-4.82764 z M 112.34894,170.75 c 3.00052,-17.17592 3.66302,-15.8652 -7.61665,-15.06918 -10.184168,0.7187 -10.238687,0.82575 -3.88562,7.62904 2.66566,2.85458 5.89681,6.42764 7.18033,7.94014 2.99966,3.5348 3.62982,3.4619 4.32194,-0.5 z m 40.40106,0.0642 c 5.28954,-1.33682 5.4866,-0.59063 -2.4785,-9.38509 -8.68249,-9.58653 -8.21042,-9.88384 -9.90413,6.23752 l -0.5428,5.16661 4.33772,-0.47247 c 2.38574,-0.25986 6.25021,-0.95582 8.58771,-1.54657 z m -14.68644,-8.62697 c 0.49165,-3.12796 1.01598,-6.58721 1.16517,-7.68721 l 0.27127,-2 -3.5,-0.33278 c -4.03079,-0.38325 -15.21052,1.76673 -14.78529,2.84336 0.15691,0.39728 3.40456,4.18037 7.21699,8.40688 l 6.93171,7.68455 0.90312,-1.61379 c 0.49672,-0.88759 1.30538,-4.17304 1.79703,-7.30101 z M 295.37069,167.25 c 0.30057,-2.0625 0.84077,-6.61816 1.20044,-10.12369 l 0.65396,-6.37369 -5.35291,2.87369 c -6.66009,3.57545 -6.90671,4.84635 -2.28973,11.80001 4.37017,6.58196 5.06301,6.80025 5.78824,1.82368 z m -43.60712,1.86667 c 0.95504,-0.48583 3.02842,-1.49103 4.60753,-2.23379 4.29693,-2.02112 4.23006,-3.27142 -0.52413,-9.80015 -5.87877,-8.07306 -6.33455,-7.87457 -7.84697,3.41727 -0.442,3.3 -1.12096,6.7875 -1.50881,7.75 l -0.70517,1.75 h 2.12056 c 1.16631,0 2.90195,-0.3975 3.85699,-0.88333 z M 244.43508,164.25 c 2.6175,-17.88474 2.78719,-17.14219 -3.25077,-14.22496 -2.24823,1.08623 -4.72934,1.97496 -5.51356,1.97496 -0.78422,0 -1.97178,0.65779 -2.63901,1.46176 l -1.21316,1.46176 5.34071,7.00487 c 6.36757,8.35171 6.39211,8.35954 7.27579,2.32161 z M 176.25,166.38037 c 4.65538,-0.74384 4.68769,-1.84806 0.20168,-6.8913 -1.95158,-2.19399 -4.70499,-5.45157 -6.11869,-7.23907 -4.03954,-5.10763 -3.92089,-5.33728 -6.01526,11.64268 l -0.54181,4.39268 4.36204,-0.6529 c 2.39912,-0.3591 6.04954,-0.92254 8.11204,-1.25209 z m -14.0618,-8.64511 c 0.58977,-3.42939 1.1262,-7.13526 1.19206,-8.23526 l 0.11974,-2 -3,0.26883 c -15.64319,1.40179 -16.31006,2.41192 -7.75473,11.74641 l 6.74528,7.35958 0.81266,-1.45215 c 0.44697,-0.79868 1.29521,-4.25802 1.88499,-7.68741 z m 34.99606,3.14861 c 0.92634,-0.48613 2.61384,-0.88387 3.75,-0.88387 3.19987,0 2.52736,-1.64862 -3.68426,-9.03177 -7.33544,-8.71893 -7.6739,-8.46299 -9.76319,7.38257 l -0.63959,4.85081 4.32639,-0.71694 c 2.37951,-0.39431 5.08431,-1.11467 6.01065,-1.6008 z m 75.27573,-0.97007 c 2.44101,-1.14741 4.90305,-2.64631 5.4712,-3.33089 l 1.03301,-1.2447 -4.60468,-6.66911 c -5.69577,-8.24935 -5.94457,-8.24635 -6.71653,0.0809 -0.34416,3.7125 -0.9057,8.2125 -1.24787,10 -0.74302,3.88161 -0.0145,4.02142 6.06487,1.1638 z M 184.76802,156.25 c 0.63037,-2.6125 1.27794,-6.775 1.43905,-9.25 l 0.29293,-4.5 -2.5,0.19383 c -5.22948,0.40546 -12.14304,2.04921 -13.24229,3.14846 l -1.14452,1.14452 2.92906,3.2566 c 11.38703,12.6603 10.70157,12.32353 12.22577,6.00659 z M 264,157.16678 c 0,-2.10827 0.51679,-6.40648 1.14841,-9.55159 1.47597,-7.3494 0.66127,-7.96634 -6.36066,-4.81659 -7.4088,3.32328 -7.43815,3.54416 -1.52405,11.46976 5.79523,7.76631 6.7363,8.17122 6.7363,2.89842 z m -46,-2.09263 c 7.0338,-2.29372 7.13059,-3.32223 0.99606,-10.58515 -7.12806,-8.4392 -6.67468,-8.80989 -8.88077,7.261 l -0.72068,5.25 1.5527,-0.0661 c 0.85398,-0.0364 4.02769,-0.87325 7.05269,-1.8597 z M 35.98612,155.25 c -0.0076,-0.4125 -3.157635,-4.30563 -7,-8.6514 C 25.143754,142.25282 22,138.31532 22,137.8486 c 0,-1.529 -1.769913,-0.88858 -2.491193,0.9014 -1.472745,3.65486 -2.383373,14.69621 -1.317939,15.97998 1.146563,1.38153 17.820213,1.86877 17.795252,0.52002 z m 25.32924,0.10131 c 0.356781,-0.35678 -0.991892,-2.49428 -2.997051,-4.75 -10.073559,-11.33233 -11.568767,-12.75085 -12.47982,-11.8398 -1.143315,1.14332 -3.094008,14.13024 -2.395743,15.94988 0.520576,1.3566 16.580903,1.93163 17.872614,0.63992 z m 18.989484,-0.85639 c 7.994873,-0.7823 8.040864,-0.18162 -0.761035,-9.93963 l -6.956191,-7.71181 -1.293809,1.76939 C 70.582214,139.58603 70,141.76172 70,143.44773 c 0,1.68601 -0.397174,4.45034 -0.882608,6.14295 -1.055262,3.67948 0.299514,6.69929 2.706827,6.03354 0.92168,-0.25489 4.737961,-0.76308 8.480625,-1.1293 z M 206.87348,151.25 c 0.52457,-2.0625 1.37304,-6.15333 1.88549,-9.09073 l 0.93172,-5.34073 -1.4197,-0.54479 c -1.96126,-0.75261 -15.2889,3.26408 -15.25502,4.59757 0.009,0.34577 1.41322,2.20368 3.12096,4.12868 1.70773,1.925 4.22896,4.9625 5.60271,6.75 3.19968,4.16336 3.96678,4.08865 5.13384,-0.5 z m -99.088,1.0681 c 6.3489,-0.727 6.47595,-0.2555 -2.65005,-9.8349 l -7.364579,-7.73046 -0.870113,1.37363 c -0.478562,0.7555 -0.877003,2.67142 -0.885425,4.25761 -0.0084,1.58619 -0.526421,4.58991 -1.151109,6.67493 -0.624688,2.08502 -0.841714,4.55732 -0.482279,5.49399 l 0.653516,1.70303 3.73228,-0.6663 c 2.052749,-0.36647 6.110749,-0.93866 9.017759,-1.27153 z m 187.67585,-5.07792 c 0.51464,-1.34112 -7.35196,-14.18166 -8.71133,-14.21937 -0.4125,-0.0115 -0.75,2.61204 -0.75,5.82997 0,3.21792 -0.49598,7.27355 -1.10219,9.01251 -0.6062,1.73895 -0.85051,3.8176 -0.5429,4.61921 l 0.55929,1.45748 5.02176,-2.6937 c 2.76196,-1.48154 5.24838,-3.28428 5.52537,-4.0061 z M 40.471575,149.25 c 0.379713,-2.0625 0.766446,-6.225 0.859406,-9.25 L 41.5,134.5 l -9.321218,-0.28847 -9.321218,-0.28847 0.821218,1.45059 c 0.45167,0.79783 2.409166,3.17764 4.34999,5.28847 1.940825,2.11083 5.053639,5.75038 6.917365,8.08788 4.144974,5.19866 4.651953,5.24454 5.525438,0.5 z m 26.00576,-1 c 0.405593,-2.6125 0.801616,-6.775 0.880053,-9.25 L 67.5,134.5 58.153733,134.2112 C 47.200202,133.87274 47.263176,133.31682 57,144.39591 c 8.82277,10.03903 8.53527,9.92212 9.477335,3.85409 z m 215.847115,-2 c 0.31065,-3.1625 0.87326,-7.8875 1.25024,-10.5 0.81147,-5.62356 0.90018,-5.59946 -6.08984,-1.65454 -6.59693,3.72307 -6.67617,4.49254 -1.23485,11.99016 5.24998,7.23395 5.37965,7.23746 6.07445,0.16438 z m -189.865913,-0.5 c 0.392148,-2.8875 0.786901,-7.05 0.877229,-9.25 L 93.5,132.5 87,132.79066 c -3.575,0.15987 -7.7375,0.33695 -9.25,0.39352 -3.868525,0.14469 -3.626973,0.66378 4.5,9.67035 8.604681,9.53598 9.28066,9.7277 10.208537,2.89547 z m 39.768153,3.724 c 2.59968,-0.32425 4.91408,-0.90106 5.1431,-1.28178 0.44585,-0.74116 -14.18711,-16.78342 -14.68517,-16.0995 C 122.02034,133.00489 120,144.84213 120,147.82201 v 3.20163 l 3.75,-0.48004 c 2.0625,-0.26402 5.87701,-0.74534 8.47669,-1.0696 z M 235.55,149.17388 c 0.5225,-0.45437 2.8625,-1.42639 5.2,-2.16006 5.24853,-1.64735 5.28501,-2.69632 0.29429,-8.46264 -2.17563,-2.51375 -4.39761,-5.35362 -4.93772,-6.31082 -1.61459,-2.86143 -3.02929,-0.2779 -4.0041,7.31228 -0.49073,3.82105 -0.99284,7.39736 -1.11578,7.94736 -0.12294,0.55 -0.17024,1.3375 -0.10511,1.75 0.15943,1.0097 3.48208,0.95552 4.66842,-0.0761 z m -117.48644,-8.98667 c 0.49165,-3.12796 1.01598,-6.58721 1.16517,-7.68721 l 0.27127,-2 -5.5,0.0749 c -15.110394,0.2057 -15.142954,0.26915 -5.54019,10.79666 l 6.95981,7.63004 0.87502,-1.56357 c 0.48126,-0.85997 1.27727,-4.12282 1.76892,-7.25079 z m 110.70839,2.33907 c 1.85054,-9.75521 1.20541,-17.53473 -1.13948,-13.74062 -0.27815,0.45006 -2.80028,1.44311 -5.60473,2.20679 -7.74297,2.10847 -7.82312,2.781 -1.2868,10.79778 7.03488,8.62826 6.54243,8.58312 8.03101,0.73605 z M 158.5,144.75721 c 1.65,-0.60631 3.1575,-1.21972 3.35,-1.36313 0.1925,-0.14341 -1.1575,-1.77147 -3,-3.61791 -1.8425,-1.84644 -4.99301,-5.28046 -7.00113,-7.63115 l -3.65112,-4.274 -0.80966,1.31005 c -0.44531,0.72053 -1.12201,3.33705 -1.50378,5.81449 -0.38177,2.47744 -1.02738,6.2325 -1.43469,8.34457 l -0.74056,3.84013 5.89547,-0.66033 c 3.24251,-0.36318 7.24547,-1.15641 8.89547,-1.76272 z M 142.42902,139.75 c 0.34213,-2.8875 0.72306,-7.05 0.84652,-9.25 l 0.22446,-4 -3,0.14506 c -16.21763,0.78415 -16.71811,1.53157 -7.43587,11.10494 8.39299,8.65622 8.5717,8.69439 9.36489,2 z m 37.98885,0.57121 c 5.65621,-1.19601 5.44441,-2.39357 -1.76846,-9.99939 -7.16451,-7.55483 -7.75441,-7.55736 -8.72424,-0.0374 -0.36995,2.86856 -1.02082,6.72866 -1.44639,8.57799 l -0.77375,3.36243 4.39749,-0.5376 c 2.41861,-0.29568 6.16052,-0.9104 8.31535,-1.36604 z m 75.3457,0.79546 c 0.95504,-0.48583 3.02842,-1.49103 4.60753,-2.23379 4.29693,-2.02112 4.23006,-3.27142 -0.52413,-9.80015 -4.39728,-6.03859 -6.77906,-7.52789 -6.9292,-4.33273 -0.0452,0.9625 -0.23232,2.875 -0.41575,4.25 -0.18344,1.375 -0.57523,4.8625 -0.87066,7.75 l -0.53713,5.25 h 1.46645 c 0.80655,0 2.24785,-0.3975 3.20289,-0.88333 z m 43.9957,-10.73929 c 0.28745,-4.60756 0.2479,-8.37738 -0.0879,-8.37738 -1.00736,0 -8.06613,4.07585 -9.57703,5.52994 l -1.40565,1.3528 4.32303,6.63524 4.32303,6.63525 0.95093,-1.69924 c 0.52302,-0.93457 1.18613,-5.46905 1.47359,-10.07661 z m -133.30274,4.39347 c 0.39325,-2.89897 0.78891,-7.07085 0.87924,-9.27085 l 0.16423,-4 -3,0.28954 c -4.06375,0.3922 -12.82246,2.42907 -13.75603,3.199 -0.95087,0.78421 13.14891,16.1957 14.21464,15.53704 0.43061,-0.26613 1.10467,-2.85576 1.49792,-5.75473 z m 83.52418,-8.35418 c 0.0206,-5.41675 -0.62706,-6.92104 -2.3887,-5.54852 -0.60061,0.46793 -3.20059,1.63912 -5.77774,2.60263 -6.40586,2.39495 -6.40489,3.13487 0.0143,10.94124 l 5.60887,6.82095 1.26199,-4.86649 c 0.6941,-2.67656 1.27068,-7.15398 1.28129,-9.94981 z m -42.99896,6.00158 c 0.60431,-0.60431 -1.50566,-3.66367 -5.76426,-8.35791 l -6.71749,-7.40468 -0.7511,4.42217 c -1.65632,9.75177 -1.97407,12.89302 -1.44392,14.27454 l 0.5546,1.44528 6.58447,-1.71308 c 3.62146,-0.9422 7.01343,-2.14205 7.5377,-2.66632 z M 188.49119,133.25 c 0.38785,-0.9625 1.063,-4.45 1.50035,-7.75 0.43734,-3.3 0.95566,-6.675 1.15181,-7.5 l 0.35665,-1.5 -3.5,0.15363 c -4.06869,0.17859 -11.12574,1.68801 -12.83715,2.74572 -0.79555,0.49168 0.86731,3.14152 5.07707,8.0905 6.8594,8.06391 7.22119,8.31647 8.25127,5.76015 z m 93.18933,-5.85984 c 0.46986,-1.22442 -7.42085,-13.29203 -8.73643,-13.36101 -0.85623,-0.0449 -3.27508,17.62628 -2.56907,18.76863 0.76196,1.23287 10.55476,-3.45121 11.3055,-5.40762 z M 36.639571,131 c 4.493136,0 4.355382,-0.33625 -3.682614,-8.98921 C 29.130631,117.89173 26,114.17923 26,113.76079 c 0,-2.46289 -1.907021,-0.10506 -2.822081,3.48921 -1.972038,7.74597 -2.054157,11.13405 -0.317562,13.10203 l 1.634281,1.85202 4.392252,-0.60202 C 31.302629,131.27091 34.791335,131 36.639571,131 Z m 28.855356,0.008 C 66.050146,130.10985 52.346953,113.31202 50.879961,113.0927 49.971529,112.95688 48.082604,120.79701 47.770197,126 L 47.5,130.5 54,131.0774 c 3.575,0.31757 7.485942,0.65507 8.690983,0.75 1.205041,0.0949 2.466816,-0.27371 2.803944,-0.81919 z m 202.791903,-8.74113 c 0.69997,-11.73255 0.93526,-11.43103 -6.04323,-7.74426 -7.19458,3.80092 -7.1974,3.82733 -1.20162,11.23743 6.49942,8.03252 6.55893,8.00383 7.24485,-3.49317 z m -176.478539,6.7111 c -0.16956,-0.47936 -3.637573,-4.5355 -7.706695,-9.01364 l -7.398404,-8.14206 -1.203607,3.50105 c -1.730704,5.03429 -2.695279,14.44301 -1.521742,14.84348 2.070882,0.70668 18.122373,-0.36353 17.830448,-1.18883 z m 127.894659,-0.11871 c 10.80044,-4.40401 10.53887,-3.33465 2.96207,-12.10947 -6.77547,-7.84679 -6.33283,-8.27429 -8.28343,8 l -0.62925,5.25 h 1.57678 c 0.86722,0 2.83545,-0.51324 4.37383,-1.14053 z m -199.329231,-13.13991 0.596364,-4.78044 -2.235041,-0.83167 c -14.9931771,-5.57906 -18.47552942,-2.12407 -9.0815506,9.0102 l 7.6534916,9.07135 1.235185,-3.8445 c 0.679353,-2.11447 1.50355,-5.9957 1.831551,-8.62494 z M 44.811454,123.75 C 48.051431,110.89747 47.495883,110 36.3,110 c -9.709356,0 -9.798731,0.18464 -3.470363,7.16941 2.6563,2.93183 5.887451,6.56809 7.180335,8.08059 3.109466,3.63766 3.540265,3.50307 4.801482,-1.5 z m 25.95859,-0.5 c 0.631479,-2.6125 1.279051,-6.55 1.43905,-8.75 l 0.290906,-4 -9.25,-0.28753 c -11.205329,-0.3483 -11.19028,-0.42094 -2,9.65364 8.654008,9.48671 8.093097,9.28733 9.520044,3.38389 z m 43.104956,4.125 c 4.47625,-0.89525 3.99797,-2.05791 -4.19393,-10.19514 l -7.31893,-7.27008 -1.18107,2.59216 c -0.64959,1.42569 -1.18107,4.1167 -1.18107,5.98001 0,1.86332 -0.42127,4.49588 -0.936156,5.85013 -1.407555,3.70215 4.966916,5.01177 14.811156,3.04292 z m 97.54257,-1.625 c 0.25063,-1.2375 0.71234,-5.5125 1.02604,-9.5 l 0.57035,-7.25 h -1.39214 c -2.32238,0 -12.03532,3.24724 -13.40513,4.48162 l -1.28331,1.15643 6.1219,6.68097 c 6.67292,7.28231 7.67707,7.81439 8.36229,4.43098 z M 96.772615,120.72072 C 97.447677,117.81712 98,113.76712 98,111.72072 V 108 l -8.25,0.0153 c -4.5375,0.008 -8.85112,0.39635 -9.585822,0.86206 l -1.335822,0.84675 7.723453,8.13794 c 9.149434,9.64045 8.674954,9.50774 10.220806,2.85866 z M 136.5,124.11292 c 6.49102,-0.7957 6.34613,-1.57831 -1.85868,-10.03973 C 126.81619,106.00334 126,105.66448 126,110.48565 c 0,1.91711 -0.52477,5.44771 -1.16616,7.8458 -0.64139,2.39808 -0.85946,5.1594 -0.4846,6.13627 l 0.68156,1.77612 3.2346,-0.759 c 1.77903,-0.41745 5.4846,-1.03481 8.2346,-1.37192 z m 157.52144,-2.74581 c 4.95372,-3.27822 4.99512,-5.05741 0.26511,-11.39308 -5.37517,-7.19982 -6.24835,-6.25661 -6.2729,6.77597 -0.0153,8.14925 0.30193,8.39308 6.00779,4.61711 z M 122,119.57629 c 0,-1.88304 0.535,-5.74145 1.18889,-8.57424 l 1.18888,-5.15054 -1.32281,-0.81754 c -0.72754,-0.44965 -2.72207,-0.41624 -4.43228,0.0742 C 116.91247,105.5987 113.14773,106 110.2566,106 c -6.76461,0 -6.65498,0.55363 1.88339,9.51025 8.01919,8.41202 9.86001,9.17113 9.86001,4.06604 z M 158,120 c 9.77916,-1.55429 9.78684,-1.63266 1.02531,-10.46724 l -6.90962,-6.96724 -1.05785,2.78234 C 150.47603,106.87815 150,109.70549 150,111.63084 c 0,1.92535 -0.48123,4.39982 -1.06939,5.49882 l -1.0694,1.99818 1.22961,1.48159 c 0.71428,0.86066 1.89589,1.19329 2.81939,0.79369 C 152.7846,121.02478 155.525,120.39337 158,120 Z m 85.8398,-0.51537 5.21412,-2.51537 -0.94721,-1.73463 C 246.62205,112.51574 237.26657,102.44272 236.74359,103 c -0.25808,0.275 -0.72674,4.6625 -1.04147,9.75 l -0.57225,9.25 h 1.74791 c 0.96135,0 4.09426,-1.13192 6.96202,-2.51537 z M 285.375,118.875 c 2.154,-10.77 0.56382,-17.67969 -3.41649,-14.84545 -1.52199,1.08375 -3.19054,1.97045 -3.70789,1.97045 -0.51736,0 -1.68236,0.81959 -2.58891,1.82131 l -1.64826,1.82131 4.59146,6.17869 c 5.25134,7.06669 5.90823,7.36298 6.77009,3.05369 z M 232,118.51856 c 0,-1.36479 0.53917,-5.62563 1.19815,-9.46852 1.50706,-8.7885 1.29708,-8.95265 -7.19192,-5.6221 -8.25265,3.23781 -8.19355,3.04245 -2.75623,9.11108 2.3375,2.6089 4.83802,5.5799 5.5567,6.60222 1.81864,2.58697 3.1933,2.31892 3.1933,-0.62268 z M 146.94732,112.25 c 0.69747,-3.7125 1.10693,-7.875 0.90992,-9.25 l -0.35821,-2.5 -1.99951,0.27127 c -17.07735,2.31682 -16.98139,2.19273 -8.51105,11.00565 8.47063,8.81322 8.39268,8.80952 9.95885,0.47308 z m 36.42494,1.92078 c 2.12975,-0.55842 4.36642,-1.50946 4.97037,-2.11341 l 1.09811,-1.09811 -6.60806,-6.60806 C 175.41781,96.936327 174,96.878977 174,103.99392 c 0,2.68173 -0.45322,6.06794 -1.00715,7.5249 -1.82871,4.80985 0.18613,5.32465 10.37941,2.65196 z M 170.3728,110.25 c 0.34499,-2.6125 0.90122,-6.43533 1.23607,-8.49517 0.33485,-2.059844 0.3697,-4.368296 0.0774,-5.129893 l -0.53137,-1.384723 -4.32748,0.94478 c -2.38011,0.519629 -6.03176,1.253081 -8.11478,1.629893 -5.01022,0.906334 -4.84392,1.459832 2.98508,9.935113 7.93003,8.58466 7.87367,8.56842 8.67503,2.5 z m 91.43086,1.16055 c 6.33726,-3.15799 6.37421,-3.78125 0.6414,-10.81888 -5.70669,-7.005561 -6.02212,-6.975166 -6.83184,0.65833 -0.36464,3.4375 -0.9038,7.7125 -1.19814,9.5 l -0.53517,3.25 h 1.3637 c 0.75004,0 3.70206,-1.16525 6.56005,-2.58945 z m -9.47303,-8.03605 c 0.6556,-9.980542 0.32124,-12.101374 -1.66966,-10.590656 -0.63853,0.484528 -2.73597,1.480492 -4.66097,2.213253 -1.925,0.73276 -4.2559,1.974331 -5.17979,2.759045 l -1.67979,1.426752 5.64394,6.908556 c 7.07549,8.66087 6.79219,8.76287 7.54627,-2.71695 z m 49.02752,4.8755 c 2.29637,-13.892955 0.62026,-17.541024 -5.80511,-12.634892 -5.25176,4.010021 -5.25187,3.9968 0.0921,11.192232 4.60134,6.19556 4.91438,6.27461 5.71305,1.44266 z m -96.70496,-0.45182 c 7.5968,-2.60714 7.59727,-2.80319 0.026,-10.715317 C 197.64314,89.73005 196,91.332897 196,105.54922 c 0,5.17125 0.0786,5.19168 8.65319,2.24896 z M 193.02475,105.4349 C 193.56114,104.0241 194,99.760346 194,95.9599 V 89.05 l -3.25,0.615852 c -1.7875,0.338718 -4.00792,1.002468 -4.93426,1.475 C 184.8894,91.613383 183.2919,92 182.26574,92 c -1.02616,0 -2.38248,0.516737 -3.01405,1.148305 l -1.1483,1.148305 6.1983,6.81078 c 7.00307,7.69506 7.37295,7.87856 8.72306,4.32751 z M 43.972944,106.25 c -0.01488,-0.4125 -2.067711,-3 -4.561843,-5.75 C 36.916968,97.75 33.725733,94.0375 32.319468,92.25 30.913203,90.4625 29.468356,89 29.108697,89 c -1.725002,0 -3.954014,15.82135 -2.44203,17.33333 0.922734,0.92274 17.339719,0.84369 17.306277,-0.0833 z m 25.696281,-0.58589 C 70.209429,105.1239 56.810852,90.146625 54.979012,89.243004 53.36577,88.447215 51.235305,104.88114 52.75,106.4371 c 0.875577,0.89943 15.93482,0.21141 16.919225,-0.77299 z m 25.550431,-1.48377 c 0.605037,-0.60503 -1.828224,-3.79047 -6.654764,-8.711898 -4.184699,-4.266969 -7.730274,-7.580446 -7.879058,-7.363283 -1.883738,2.749488 -3.348955,15.873621 -1.935834,17.339521 1.003209,1.04068 15.259027,-0.0537 16.469656,-1.26434 z M 279.25,101.97916 c 5.85719,-3.67811 5.85694,-4.067664 -0.007,-11.446454 L 274.5,84.565412 l -0.68863,6.967294 c -0.37874,3.832012 -0.96163,8.429794 -1.29531,10.217294 -0.76995,4.12462 0.46379,4.1666 6.73394,0.22916 z M 24.105382,94.259697 C 25.214181,86.430164 24.955165,86.064526 17.920894,85.529392 14.939402,85.302574 11.264437,84.90551 9.7543033,84.647026 5.0087178,83.834745 5.6926858,85.682062 13.613495,95.070249 l 7.698143,9.124271 0.928316,-1.65881 c 0.510574,-0.91235 1.350017,-4.636552 1.865428,-8.276013 z M 48.844271,101.25 c 0.597802,-1.5125 1.214896,-5.45 1.37132,-8.75 L 50.5,86.5 41.153733,86.2112 c -11.001752,-0.339954 -10.933329,-0.746004 -1.642904,9.749606 7.989894,9.026374 7.880794,8.964544 9.333442,5.289194 z m 64.595529,1.6234 c 3.33311,-0.61964 6.63815,-1.28644 7.34454,-1.4818 0.73143,-0.20228 -2.00735,-3.646867 -6.36188,-8.001394 l -7.64621,-7.646211 -0.87281,1.378003 C 105.42339,87.879899 105.01469,88.725 104.99521,89 c -0.0195,0.275 -0.4535,3.392481 -0.96449,6.927736 -1.29704,8.973574 -1.33775,8.943524 9.40908,6.945664 z M 270.49533,83.182002 c -0.51486,-0.549417 -11.39742,5.267559 -11.81988,6.317998 -0.2212,0.55 2.12383,4.15 5.21118,8 l 5.61337,7 0.64666,-10.5 c 0.35567,-5.775 0.51257,-10.643099 0.34867,-10.817998 z M 74.808479,100.25 C 76.23548,96.516593 77.342037,86.024278 76.321956,85.899277 71.197248,85.27129 57.842883,86.026531 58.166667,86.926029 60.530308,93.492431 73.44057,103.8288 74.808479,100.25 Z M 226.63983,99.937969 c 5.97833,-2.559588 5.94574,-3.009669 -0.74656,-10.313135 -7.67254,-8.373232 -7.4033,-8.493721 -7.73761,3.462611 l -0.28205,10.087445 2.31319,-0.73224 c 1.27226,-0.40273 4.17613,-1.52983 6.45303,-2.504681 z M 100.84171,97.13398 C 101.47877,95.00767 102,90.909525 102,88.026992 v -5.24097 l -1.58179,0.606989 C 99.548229,83.726855 95.498229,84 91.418213,84 c -9.353093,0 -9.362931,0.495184 -0.193241,9.726484 8.440346,8.497056 8.125315,8.385426 9.616738,3.407496 z m 113.98654,-1.21027 c 1.57295,-6.81439 1.53293,-13.927915 -0.0782,-13.909157 -1.19062,0.01386 -5.91281,1.54274 -12.09343,3.915425 l -2.84344,1.091567 6.19642,6.989228 c 7.39946,8.346197 7.33686,8.332617 8.8187,1.912937 z M 142.25,98.390566 c 5.00427,-0.813197 4.86581,-1.205789 -3.30779,-9.379387 C 131.31669,81.38566 130,81.076242 130,86.909794 c 0,2.085468 -0.49598,5.214541 -1.10219,6.953496 -0.6062,1.738955 -0.82363,3.887631 -0.48318,4.774836 l 0.61901,1.613104 4.73318,-0.625645 c 2.60325,-0.344102 6.42068,-0.899861 8.48318,-1.235019 z M 126.46202,92.279318 C 126.87335,89.100693 127.27516,85.15 127.35494,83.5 l 0.14506,-3 -4,0.111435 c -15.93897,0.444038 -16.31197,1.021654 -6.82333,10.566273 8.78802,8.839872 8.78403,8.839422 9.78535,1.10161 z m 37.00284,1.714588 c 7.44242,-1.534443 7.4052,-2.121182 -0.62267,-9.814673 L 155.5,77.142852 l -0.67971,1.678574 c -0.37385,0.923216 -0.71135,3.481545 -0.75,5.685176 -0.0387,2.203631 -0.47916,5.432258 -0.9789,7.174727 -1.08739,3.791528 -0.45116,4.647903 2.8964,3.898562 1.38171,-0.309293 4.7464,-1.022986 7.47707,-1.585985 z m 82.28382,-2.141541 c 6.56766,-2.943503 6.54181,-3.647895 -0.4009,-10.926602 C 238.0191,73.242406 238,73.253274 238,85.106989 v 10.106989 l 1.25,-0.504624 c 0.6875,-0.277543 3.61191,-1.563188 6.49868,-2.856989 z m 49.06804,0.403324 c 6.0187,-4.48437 5.98372,-4.79307 -1.56672,-13.82408 L 290,74.544312 v 10.227844 c 0,11.499017 -0.18561,11.210638 4.81672,7.483533 z M 150.49927,88.75 c 0.42783,-2.8875 0.82801,-7.044828 0.8893,-9.238507 l 0.11143,-3.988507 -4,0.302512 c -2.2,0.166382 -5.575,0.787256 -7.5,1.379719 -1.925,0.592464 -4.14596,1.256563 -4.93546,1.475777 C 133.73906,79.049028 147.42334,94 149.08568,94 c 0.34966,0 0.98577,-2.3625 1.41359,-5.25 z m 84.86481,-0.389571 c 1.98048,-14.449207 1.23891,-15.793039 -6.88909,-12.484039 -7.86654,3.202559 -7.89757,3.630257 -0.80753,11.129252 6.80795,7.200642 6.89329,7.215664 7.69662,1.354787 z M 286.92971,81.25 c 0.0804,-9.440861 0.30526,-9.250966 -6.09216,-5.145754 -5.93255,3.806902 -5.93493,3.997339 -0.141,11.282018 l 4.68168,5.886264 0.7406,-1.886264 C 286.52616,90.348819 286.89106,85.7875 286.92971,81.25 Z m -104.72676,7.854139 c 1.26338,-0.492724 4.2217,-1.468762 6.57406,-2.168973 5.17378,-1.540049 5.3678,-1.024443 -3.52701,-9.372815 L 178,70.757744 v 3.678308 c 0,2.023069 -0.50133,5.669274 -1.11407,8.102677 -1.72944,6.86824 -0.22444,8.726604 5.31702,6.56541 z m -7.93968,-8.32247 C 174.56948,76.776751 174.97301,72.825 175.16001,72 L 175.5,70.5 172,70.653629 c -4.15915,0.182561 -11.13788,1.695516 -12.93014,2.803192 -0.90542,0.559585 0.83793,2.916752 6.00279,8.116314 8.54406,8.601474 8.47199,8.607682 9.19062,-0.791466 z m 88.7356,2.324481 c 5.77803,-3.514749 5.98749,-5.129156 1.31877,-10.16449 -2.0997,-2.264579 -4.1775,-4.752871 -4.61733,-5.529538 -1.70729,-3.014799 -2.44295,-1.064822 -2.95696,7.837878 -0.70826,12.267196 -0.80214,12.149292 6.25552,7.85615 z M 48.975158,83 c -0.0055,-0.648225 -15.088103,-17.409161 -16.007281,-17.788535 -0.384497,-0.158694 -0.989165,1.641306 -1.343707,4 -0.354542,2.358694 -0.914976,5.982233 -1.24541,8.052308 -0.370078,2.31844 -0.137879,4.321544 0.604666,5.216257 l 1.205455,1.452483 8.395268,-0.216256 C 45.201546,83.597316 48.9775,83.275 48.975158,83 Z m 18.817275,-0.514398 c 7.333484,-0.328587 7.326751,-0.401726 -0.868487,-9.433802 -8.502578,-9.370799 -8.467301,-9.356384 -9.304119,-3.8018 -0.352153,2.3375 -0.910633,5.943698 -1.241067,8.013773 -0.732817,4.590899 0.990583,7.214302 4.051383,6.167118 1.138422,-0.389484 4.451452,-0.814865 7.36229,-0.945289 z M 254,74.666667 c 0,-10.73371 -5.02744,-12.56809 -11.86507,-4.329251 l -1.02948,1.240453 5.60042,6.211065 C 253.90052,85.768053 254,85.725469 254,74.666667 Z M 22,81.297232 C 22,80.223156 7.552439,64.158574 6.9315706,64.542292 6.1886373,65.00145 4.902278,72.617365 4.6585085,78 L 4.5,81.5 12,82 c 7.3001,0.486673 10,0.296933 10,-0.702768 z M 207.45,80.948814 C 207.9725,80.426966 209.12,80 210,80 c 0.88,0 2.14517,-0.545173 2.8115,-1.211496 l 1.21149,-1.211496 -6.23261,-6.288504 c -7.69604,-7.765066 -7.38415,-7.80225 -8.06472,0.961496 -0.30966,3.9875 -0.89942,8.106976 -1.31057,9.15439 l -0.74756,1.90439 4.41624,-0.705576 c 2.42892,-0.388067 4.84373,-1.132542 5.36623,-1.65439 z M 301.98899,76.75 c -0.0241,-13.69093 -1.00849,-15.36238 -6.55571,-11.131311 -4.43849,3.385403 -4.32774,5.558246 0.56672,11.118651 2.2,2.499332 4,4.930884 4,5.40345 0,0.472565 0.45,0.85921 1,0.85921 0.56117,0 0.99517,-2.742663 0.98899,-6.25 z M 96.25,80.439357 c 4.70264,-0.879132 5.02351,-0.09108 -3.629776,-8.914495 C 84.11758,62.855058 84.383189,62.982259 83.6939,67.25 c -0.288701,1.7875 -0.844309,5.141054 -1.234683,7.452342 -0.390374,2.311288 -0.436157,4.915368 -0.10174,5.786844 l 0.60803,1.584502 4.767246,-0.466645 C 90.354739,81.350389 94.1875,80.82493 96.25,80.439357 Z M 196,78.63649 c 0,-1.849931 0.45077,-5.740398 1.00171,-8.645482 0.67157,-3.541206 0.66958,-5.682152 -0.006,-6.49623 l -1.00775,-1.214259 -7.23838,2.437498 c -3.98112,1.340624 -7.44116,2.640272 -7.689,2.888106 C 180.51045,68.156216 194.13183,82 195.22318,82 195.65043,82 196,80.48642 196,78.63649 Z M 28,73.958094 c 0,-1.462806 0.497298,-4.086198 1.105107,-5.829761 L 30.210215,64.95822 28.982663,63.47911 27.755111,62 H 19.377555 C 9.3059689,62 9.404936,61.209482 18.163689,71.695978 l 7.163689,8.576791 1.336311,-1.827514 C 27.39866,77.440122 28,75.4209 28,73.958094 Z M 53.495192,76.25 c 0.322199,-2.0625 1.045478,-5.470289 1.607285,-7.572865 L 56.123945,64.85427 54.939528,63.427135 53.755111,62 h -8.877556 c -10.7289,0 -10.691475,-0.285087 -1.290913,9.833711 8.665135,9.327183 9.110378,9.52563 9.90855,4.416289 z m 64.819908,1.734687 c 2.30169,-0.0084 4.8599,-0.444074 5.6849,-0.968116 l 1.5,-0.952803 -7.46555,-7.522402 -7.46556,-7.522403 -0.82015,1.465527 c -3.63356,6.492814 -2.30314,18.05699 1.89382,16.461308 1.3682,-0.520189 4.37084,-0.952689 6.67254,-0.961111 z M 79.40067,75.75 c 0.270212,-1.7875 0.6984,-4.825 0.951527,-6.75 0.253128,-1.925 0.614936,-4.175 0.804018,-5 L 81.5,62.5 71.75,62.213788 c -11.635159,-0.341551 -11.462182,-0.930366 -2.607514,8.87603 7.882468,8.7297 9.52987,9.478096 10.258184,4.660182 z m 25.44104,-2.61602 C 105.47877,71.00767 106,66.90142 106,64.00898 V 58.75 l -3.125,0.625 c -1.71875,0.34375 -5.76875,0.625 -9,0.625 -7.643414,0 -7.534887,0.781928 1.349972,9.726484 8.440348,8.497055 8.125318,8.38543 9.616738,3.407496 z m 41.55094,-0.290707 3.89264,-1.009032 -7.36762,-7.41712 c -8.7138,-8.772348 -8.4974,-8.710103 -9.27235,-2.667121 -0.33503,2.6125 -0.89255,6.206977 -1.23893,7.987728 -0.34638,1.78075 -0.38953,3.863831 -0.0959,4.62907 l 0.53391,1.391342 4.82779,-0.952918 c 2.65528,-0.524105 6.57948,-1.406982 8.72044,-1.961949 z m 86.37356,-2.307932 1.2662,-1.13918 -6.13338,-6.684682 c -7.3887,-8.052849 -7.43041,-8.038298 -7.76692,2.70979 -0.33504,10.701442 4.32642,12.588326 12.6341,5.114072 z M 281.75,71.824227 C 285.19031,70.0731 284.41536,67.058205 278.96774,61 l -4.94568,-5.5 -0.011,9.583333 c -0.0122,10.583832 0.37021,11.63809 3.41243,9.408206 1.1421,-0.83713 3.08904,-2.03742 4.32654,-2.667312 z M 217.04578,73.75 C 217.75906,69.855318 217.98331,55 217.32883,55 215.97735,55 206.79624,58.379573 204.5,59.722297 l -2,1.169499 6.47111,6.554102 c 5.53423,5.605207 7.86886,7.42791 8.07467,6.304102 z M 271,64.666667 c 0,-11.294908 0.017,-11.273936 -6.08777,-7.517646 -6.70354,4.124734 -6.70175,4.101157 -0.82529,10.857469 C 270.83491,75.764796 271,75.685037 271,64.666667 Z m -141,3.576731 c 0,-2.616131 0.40553,-6.170601 0.90118,-7.898823 1.54124,-5.374012 -0.63023,-5.898658 -13.15118,-3.17743 -2.6125,0.567785 -4.75,1.140654 -4.75,1.273042 0,1.153198 13.90839,14.295851 15.25,14.410398 L 130,73 Z m 35.46322,0.308198 c 8.37118,-2.180415 8.36946,-2.162291 0.91564,-9.673675 -8.04588,-8.108009 -7.9487,-8.078724 -8.72063,-2.627921 -0.33103,2.3375 -0.89808,6.3875 -1.2601,9 L 155.7399,70 h 2.08126 c 1.14469,0 4.58362,-0.651782 7.64206,-1.448404 z M 154.17857,62 c 0.0982,-3.85 0.21072,-8.0125 0.25,-9.25 L 154.5,50.5 152,50.673994 c -4.5007,0.313238 -12.39523,2.320435 -13.45881,3.421924 C 137.53341,55.13962 151.13422,69 153.16616,69 c 0.45861,0 0.9142,-3.15 1.01241,-7 z m 92.63577,1.933641 c 6.18335,-3.545938 6.21208,-3.060666 -0.61773,-10.434421 -6.32749,-6.831419 -5.93487,-7.052266 -6.22368,3.50078 -0.32689,11.94484 -0.89429,11.369796 6.84141,6.933641 z M 235.61368,46.280347 c -0.51131,-0.511312 -10.55293,4.313399 -12.07428,5.801349 -0.60787,0.59452 1.41174,3.334664 5.5,7.462221 l 6.4606,6.522712 0.28777,-9.662214 c 0.15827,-5.314218 0.0799,-9.870049 -0.17409,-10.124068 z m 58.95304,16.100964 c 4.47677,-3.414594 4.33019,-5.468636 -0.81672,-11.445229 -5.0967,-5.918294 -6.09797,-6.138669 -5.3889,-1.186082 0.29529,2.0625 0.81722,6.3375 1.15985,9.5 0.72036,6.648955 0.56241,6.550937 5.04577,3.131311 z m -106.1333,-0.50978 c 3.33662,-1.170658 6.26638,-2.307963 6.51059,-2.527344 C 195.64438,58.715016 182.69611,46 181.35504,46 c -1.10816,0 -2.49239,15.189473 -1.57201,17.25 0.52189,1.168402 2.11473,0.914578 8.65039,-1.378469 z M 286,54 V 44 l -1.27216,0 c -3.82945,0 -10.8183,8.938626 -7.94901,10.166667 0.42835,0.183333 2.54864,2.470833 4.71176,5.083333 2.16311,2.6125 4.06264,4.75 4.22117,4.75 C 285.87029,64 286,59.5 286,54 Z m -108.93751,0.466063 1.26964,-8.533936 -1.13604,-1.136034 -1.13603,-1.136033 -4.28003,1.285946 c -5.51357,1.656566 -10.14855,3.29168 -10.76926,3.799143 -0.52765,0.43139 13.06386,14.071022 14.13565,14.185691 0.35554,0.03804 1.21777,-3.771111 1.91607,-8.464777 z M 27,59.110418 c 0,-0.489269 -1.579214,-2.626769 -3.509364,-4.75 -1.93015,-2.12323 -4.96765,-5.759004 -6.75,-8.079497 C 12.727097,41.055577 11.254719,40.930002 10.515534,45.75 10.199233,47.8125 9.4585487,51.007206 8.8695684,52.849348 7.470823,57.224173 8.281295,57.904884 16.093466,58.916661 25.148896,60.089456 27,60.122342 27,59.110418 Z m 26,0.306923 C 53,58.201383 38.441752,43.049902 37.25,43.025546 36.48765,43.009966 36,44.340022 36,46.4349 c 0,1.889196 -0.474956,4.684131 -1.055459,6.210967 -0.580502,1.526837 -0.796929,3.806132 -0.480948,5.0651 L 35.038104,60 h 8.980948 C 48.958573,60 53,59.737804 53,59.417341 Z m 23.664618,-1.080128 2.164617,-0.51117 -7.64282,-7.831002 C 63.209869,41.822097 62,41.284061 62,45.909794 c 0,1.535468 -0.49679,4.216853 -1.103978,5.958633 -0.607188,1.741781 -0.811026,4.334088 -0.452973,5.760684 l 0.651005,2.593811 6.702973,-0.68727 c 3.686635,-0.377998 7.677051,-0.917296 8.867591,-1.198439 z M 97.439805,56.805987 C 100.77291,56.149281 103.65177,55.510011 103.83726,55.38539 104.21304,55.132928 90.18991,41.648819 89.12954,41.243004 88.325088,40.935132 86,50.496593 86,54.112614 c 0,4.372439 1.329283,4.685403 11.439805,2.693373 z M 32,54.014351 c 0,-1.642107 0.534014,-4.982267 1.186698,-7.422579 l 1.186698,-4.436931 -1.340764,-1.615522 C 32.166943,39.496228 30.240547,38.957509 27.595934,39.018939 25.34317,39.071267 21.5875,38.804161 19.25,38.425371 12.97505,37.40852 13.766822,39.055535 25.886842,52.231103 31.001625,57.791338 32,58.082571 32,54.014351 Z m 25.984687,-2.615128 c 0.0084,-1.705427 0.533321,-4.586735 1.166442,-6.402907 l 1.151129,-3.302131 -1.494059,-1.097093 c -1.590166,-1.167664 -17.819927,-0.958731 -17.792821,0.229055 0.0085,0.370619 3.435664,4.215939 7.616014,8.545155 l 7.600636,7.871302 0.868673,-1.371302 c 0.477771,-0.754216 0.875564,-2.766652 0.883986,-4.472079 z M 207.5,55.070945 c 4.68666,-1.882524 7.5,-3.461995 7.5,-4.210674 0,-0.733808 -12.28712,-12.974538 -12.59429,-12.54674 -0.0736,0.102558 -0.43896,4.385296 -0.81182,9.517195 l -0.67794,9.330725 2.29203,-0.643576 C 204.46859,56.163908 206.4,55.51279 207.5,55.070945 Z M 263.64335,54.25 c 5.60514,-3.540976 5.48971,-4.699337 -1.11861,-11.225567 -6.55397,-6.47256 -6.22677,-6.742495 -5.72803,4.725567 0.44948,10.335208 0.57985,10.458974 6.84664,6.5 z M 254,46.559017 c 0,-11.197618 -0.17015,-11.379131 -6.82838,-7.284565 -6.35192,3.906192 -6.35291,3.769867 0.0784,10.778434 6.83774,7.451503 6.75,7.496919 6.75,-3.493869 z M 83.447871,51.75 c 0.296174,-1.7875 0.654065,-5.5 0.795313,-8.25 l 0.256816,-5 -7,-0.0438 c -12.835656,-0.08031 -13.03604,0.437982 -3.77682,9.768701 7.589669,7.648275 8.959256,8.144736 9.724691,3.525096 z m 41.485209,1.012919 4.43307,-1.125358 -7.91674,-7.276928 c -8.88151,-8.163715 -8.89101,-8.161553 -9.80807,2.230485 -0.80298,9.099264 0.10284,9.519866 13.29174,6.171801 z m 73.40047,-5.932422 c 0.64417,-8.353459 -0.3957,-12.16835 -2.69117,-9.872879 C 195.06907,37.530928 194.05231,38 193.38291,38 c -0.66941,0 -3.38169,0.927853 -6.0273,2.061895 l -4.81021,2.061895 6.82944,6.438105 c 8.50706,8.019583 8.20223,8.078495 8.95871,-1.731398 z M 108.9171,45.598352 c 1.90117,-10.699853 1.2347,-11.154741 -13.1671,-8.987001 -4.997244,0.752178 -4.886454,1.045187 3.5,9.256491 8.83359,8.6491 8.07869,8.670144 9.6671,-0.26949 z M 300,48.810195 C 300,45.77633 297.97031,33.981903 297.29101,33.068353 296.73444,32.319864 290,39.331226 290,40.65917 c 0,1.374378 8.02278,11.146731 9.25,11.267204 0.4125,0.04049 0.75,-1.361786 0.75,-3.116179 z m -151.25,-0.38344 c 5.55301,-0.832071 5.50655,-0.960379 -3.17159,-8.7581 -9.29957,-8.356105 -9.12871,-8.391132 -9.45209,1.937731 l -0.26945,8.606385 4.32156,-0.574595 c 2.37686,-0.316028 6.23407,-0.861167 8.57157,-1.211421 z M 133.02065,43.75 c 0.64024,-2.8875 1.01001,-6.825 0.82171,-8.75 L 133.5,31.5 l -4,0.275987 c -13.53377,0.933787 -14.16656,2.081436 -5.75714,10.441484 8.14515,8.097332 7.83359,8.045867 9.27779,1.532529 z m 96.01259,1.733154 c 5.66937,-2.872887 1.41562,-12.145202 -7.00884,-15.27783 -0.43585,-0.162072 -0.85742,3.775428 -0.93681,8.75 L 220.94324,48 h 1.56162 c 0.8589,0 3.79667,-1.132581 6.52838,-2.516846 z M 218,38.059017 C 218,27.769719 217.70261,27.358889 212.18431,30.025039 209.93608,31.111267 207.67997,32 207.17075,32 c -0.50922,0 -1.4633,0.64758 -2.12018,1.439067 l -1.19432,1.439066 6.32188,6.03263 C 218.20403,48.569459 218,48.643845 218,38.059017 Z m 60.17327,6.207074 c 5.72822,-4.707457 5.75933,-4.32305 -0.95371,-11.7823 -5.34883,-5.943387 -5.60328,-5.649285 -4.724,5.460142 0.79472,10.041008 0.94664,10.210168 5.67771,6.322158 z m -8.66264,-12.992783 c -0.83625,-5.644598 -1.82291,-5.98605 -6.52837,-2.259259 -5.02863,3.982753 -5.02582,4.007815 1.26774,11.284424 l 5.25,6.070047 0.31841,-5.43426 c 0.17513,-2.988843 0.0366,-7.336271 -0.30778,-9.660952 z M 168.45,42.87214 C 168.9725,42.392463 170.66,42 172.2,42 c 4.2032,0 3.4614,-1.620853 -3.82898,-8.366412 C 160.35665,26.218131 160,26.053522 160,29.769975 c 0,1.615154 -0.29076,5.718487 -0.64613,9.118519 l -0.64614,6.181877 4.39614,-0.663045 c 2.41787,-0.364675 4.82363,-1.055508 5.34613,-1.535186 z m -11.98858,-8.734665 0.69566,-8.362526 -3.82854,0.574155 c -9.0502,1.357234 -11.31754,1.93272 -12.3057,3.123377 l -1.04724,1.261851 6.7622,5.882834 c 3.71921,3.235559 6.92532,6.259709 7.1247,6.720334 0.92178,2.129638 1.96307,-1.556456 2.59892,-9.200025 z m 89.65325,2.203596 c 6.15369,-3.349255 6.12313,-3.678795 -0.99418,-10.721839 -6.8661,-6.794451 -6.88629,-6.779692 -6.3367,4.630768 0.47195,9.798585 0.49055,9.814044 7.33088,6.091071 z M 188,36.70522 c 1.925,-0.695567 4.60824,-1.880863 5.96276,-2.633991 l 2.46275,-1.369324 -6.96275,-6.348336 -6.96276,-6.348337 -0.69831,8.176514 C 180.88958,38.861677 181.12729,39.18856 188,36.70522 Z m 47.50651,-17.532043 c -0.76397,-0.763973 -12.46906,5.076625 -12.49006,6.232283 -0.009,0.498003 2.79605,3.501988 6.23355,6.675522 l 6.25,5.770063 0.28921,-9.052977 c 0.15907,-4.979137 0.0318,-9.310338 -0.2827,-9.624891 z M 30.962389,35.75 c -0.02069,-0.6875 -2.945686,-4.331239 -6.5,-8.097198 C 20.908075,23.886843 18,20.399343 18,19.902802 18,17.832993 16.181687,19.211146 15.562837,21.75 12.335955,34.988405 12.759563,35.815428 23,36.269816 c 4.125,0.183035 7.6125,0.422204 7.75,0.531487 C 30.8875,36.910586 30.983075,36.4375 30.962389,35.75 Z M 178.33704,28.785258 c 0.79089,-10.255984 0.50895,-10.523052 -8.24787,-7.812855 -8.60636,2.66363 -8.58739,2.119782 -0.33917,9.723589 8.39622,7.740246 7.83315,7.865538 8.58704,-1.910734 z M 49.826473,28.038212 42.5,20.076424 41.25,21.729342 C 40.5625,22.638446 40,24.536722 40,25.947732 40,27.358741 39.591127,29.93886 39.091394,31.681329 37.872632,35.930902 38.019058,36 48.24314,36 h 8.909806 z M 83,35.034915 C 83,33.767178 67.349126,18.984207 66.697181,19.636152 66.313732,20.019602 66,21.443625 66,22.800647 c 0,1.357023 -0.511108,4.173241 -1.135796,6.258263 -0.624688,2.085022 -0.852043,4.530399 -0.505233,5.43417 l 0.630563,1.643221 9.005233,-0.259776 C 78.947645,35.733649 83,35.354924 83,35.034915 Z m 211.98815,-6.981082 c -0.0106,-1.390035 -8.89558,-11.557056 -9.47723,-10.844721 -0.36313,0.444724 1.42869,16.096743 2.02696,17.706046 l 0.5261,1.415159 3.46801,-3.361325 c 1.90741,-1.848729 3.46268,-4.060551 3.45616,-4.915159 z M 36.436911,30.25 c 0.360647,-2.0625 0.90494,-5.659332 1.209539,-7.99296 l 0.553818,-4.24296 -1.350134,-0.425215 C 33.563054,16.553621 20,16.213998 20,17.166932 20,22.453999 35.625368,34.891114 36.436911,30.25 Z m 25.67781,-1.867916 c 0.338096,-2.724848 0.890324,-5.838028 1.227171,-6.918177 1.302049,-4.175196 -5.931965,-5.974123 -15.086238,-3.75159 L 45.011308,18.5 l 7.114694,7.793217 c 8.053895,8.821989 9.125475,9.04608 9.988719,2.088867 z m 41.019259,4.459628 c 3.7233,-1.115526 4.88783,-2.310057 2.93283,-3.008379 C 105.55356,29.65 102.44608,26.9125 99.161304,23.75 91.594847,16.465201 90,17.405125 90,29.149223 V 34 h 4.63398 c 2.54869,0 6.37369,-0.521229 8.5,-1.158288 z M 284,30.97372 C 284,26.61844 281.67739,15 280.80674,15 c -8.49732,0 -6.21511,17.646827 2.44326,18.89213 0.4125,0.05933 0.75,-1.253956 0.75,-2.91841 z M 87.036123,28.25 c 0.614023,-2.0625 0.969586,-5.734332 0.790141,-8.159626 L 87.5,15.680748 79.013545,15.910162 C 68.220022,16.201944 68.321128,15.762816 77.029055,24.529251 85.635579,33.1936 85.571469,33.169763 87.036123,28.25 Z M 127.25,28.790034 c 4.76245,-1.409878 4.71459,-1.758704 -0.86904,-6.334063 -2.54047,-2.081724 -5.67001,-4.835932 -6.95454,-6.120462 C 118.14189,15.050979 116.88632,14 116.63627,14 c -0.85859,0 -2.92275,13.811064 -2.30483,15.42134 l 0.61796,1.610386 4.2753,-0.56577 c 2.35142,-0.311173 5.9628,-1.065338 8.0253,-1.675922 z M 209.92064,27.75 C 216.38775,24.883784 216.32101,24.404027 208.5,17.537559 L 202,11.830876 V 20.915438 30 h 1.42195 c 0.78207,0 3.70648,-1.0125 6.49869,-2.25 z m -97.8617,-6.828547 c 0.69817,-9.270111 0.39978,-9.622899 -6.8692,-8.121516 C 101.99417,13.459972 98.394197,14 97.189805,14 c -3.500667,0 -2.644419,1.422286 5.060195,8.405327 8.76277,7.942098 9.10291,7.890644 9.80894,-1.483874 z m 86.87077,-1.089666 C 199.05838,9.4552666 198.74845,9.3437852 186.25,15.270939 c -2.99436,1.420017 -3.03105,1.35368 4.51637,8.164484 l 6.57737,5.935422 0.75785,-1.935422 c 0.41681,-1.064483 0.78947,-4.486119 0.82812,-7.603636 z m 62.92025,6.161941 c 5.3034,-3.84176 5.2512,-4.228522 -1.44594,-10.715077 -6.55354,-6.3474558 -7.07008,-6.2204054 -5.54686,1.364302 0.62856,3.129835 1.14284,7.190558 1.14284,9.023828 0,4.092204 0.60546,4.126042 5.84996,0.326947 z m -9.71365,-7.182189 C 251.23922,7.3475792 250.31696,6.7657312 243,13.047474 l -3.5,3.004812 6.44609,5.944433 c 3.54535,3.269438 6.5415,5.845174 6.6581,5.723857 0.11661,-0.121317 -0.0939,-4.130384 -0.46788,-8.909037 z M 145.429,25.034683 c 1.68905,-0.530924 4.3085,-1.214497 5.821,-1.519052 4.35514,-0.876943 -3.99215,-11.185136 -11.32918,-13.9905758 L 138.5,8.9817804 138.21965,16.537281 c -0.37267,10.043949 0.18777,10.70452 7.20935,8.497402 z m -9.62987,-8.445807 c 0.16452,-3.789745 0.0869,-7.4435449 -0.17253,-8.1195542 L 135.15495,7.240214 130.82747,8.1409901 C 128.44736,8.6364169 124.8125,9.3166198 122.75,9.6525522 120.6875,9.9884845 119,10.61827 119,11.052076 c 0,1.530658 13.52037,12.985265 15,12.708164 l 1.5,-0.280917 z m 169.17414,0.10536 c -0.0275,-2.2544 -7.60472,-11.3961173 -8.61143,-10.3894126 -0.30864,0.308645 -0.10662,2.0538236 0.44895,3.8781746 0.55556,1.824351 1.29185,5.29908 1.6362,7.72162 0.34435,2.422539 0.90685,4.858895 1.25,5.414124 0.91412,1.479077 5.3078,-4.037302 5.27628,-6.624506 z m -78.75011,2.809449 C 228.57542,18.130712 231.175,16.549602 232,15.990108 l 1.5,-1.017263 -6,-5.4846174 C 219.65518,2.3172527 218.29546,4.0543897 220.64185,18.25 c 0.73569,4.450924 0.27925,4.348399 5.58131,1.253685 z M 296,20.36602 C 296,17.822405 291.98156,3 291.29197,3 286.01323,3 285.37514,11.603282 290.25,17.048904 294.87687,22.2175 296,22.865423 296,20.36602 Z M 217.88976,14.25 C 217.64647,8.632916 216.68707,4.0841273 215.33063,2.116448 214.81156,1.3634634 204,7.1674892 204,8.1991315 c 0,1.1822921 12.03256,12.6877005 13.34106,12.7565895 0.46259,0.02435 0.7095,-2.993221 0.5487,-6.705721 z m -48.45634,3.621531 c 3.33662,-1.170658 6.23171,-2.273286 6.43353,-2.450285 0.53696,-0.470907 -8.98057,-9.1036279 -11.61544,-10.5356029 -3.06768,-1.6671939 -3.44372,-1.0025906 -3.81926,6.7501919 -0.4639,9.576917 -0.48343,9.563384 9.00117,6.235696 z M 157.78893,10.25 157.5,1.5 155,1.797715 c -1.375,0.1637432 -3.625,0.6896656 -5,1.1687165 -1.375,0.4790508 -3.7375,1.1411525 -5.25,1.4713371 -4.03693,0.8812779 -3.50442,1.8899188 4.5,8.5235624 9.15606,7.588061 8.8819,7.675113 8.53893,-2.711331 z"
       id="path1" />
  </g>
</svg>
